<svg width="57" height="56" viewBox="0 0 57 56" fill="none" xmlns="http://www.w3.org/2000/svg">
<circle cx="28.667" cy="28" r="28" fill="#585FCD"/>
<path d="M28.9997 16C31.9463 16 34.333 18.3867 34.333 21.3333C34.333 24.28 31.9463 26.6667 28.9997 26.6667C26.053 26.6667 23.6663 24.28 23.6663 21.3333C23.6663 18.3867 26.053 16 28.9997 16ZM34.333 30.0533C34.333 31.4667 33.9597 34.76 31.413 38.44L30.333 32L31.5863 29.4933C30.7597 29.4 29.893 29.3333 28.9997 29.3333C28.1063 29.3333 27.2397 29.4 26.413 29.4933L27.6663 32L26.5863 38.44C24.0397 34.76 23.6663 31.4667 23.6663 30.0533C20.4797 30.9867 18.333 32.6667 18.333 34.6667V40H39.6663V34.6667C39.6663 32.6667 37.533 30.9867 34.333 30.0533Z" fill="white"/>
</svg>
