<svg width="56" height="56" viewBox="0 0 56 56" fill="none" xmlns="http://www.w3.org/2000/svg">
<circle cx="28" cy="28" r="28" fill="#585FCD"/>
<path d="M33.3333 34.6669V37.3336H14.6667V34.6669C14.6667 34.6669 14.6667 29.3336 24 29.3336C33.3333 29.3336 33.3333 34.6669 33.3333 34.6669ZM28.6667 22.0002C28.6667 21.0773 28.393 20.175 27.8802 19.4076C27.3674 18.6401 26.6386 18.042 25.7858 17.6888C24.9331 17.3356 23.9948 17.2432 23.0896 17.4232C22.1843 17.6033 21.3528 18.0478 20.7002 18.7004C20.0475 19.353 19.6031 20.1846 19.423 21.0898C19.2429 21.9951 19.3353 22.9334 19.6886 23.7861C20.0418 24.6388 20.6399 25.3676 21.4073 25.8804C22.1748 26.3932 23.077 26.6669 24 26.6669C25.2377 26.6669 26.4247 26.1752 27.2998 25.3001C28.175 24.4249 28.6667 23.2379 28.6667 22.0002ZM33.2533 29.3336C34.073 29.9679 34.7437 30.7741 35.2182 31.6956C35.6928 32.617 35.9596 33.6312 36 34.6669V37.3336H41.3333V34.6669C41.3333 34.6669 41.3333 29.8269 33.2533 29.3336ZM32 17.3336C31.0822 17.3285 30.1847 17.6028 29.4267 18.1202C30.2366 19.2519 30.6721 20.6086 30.6721 22.0002C30.6721 23.3919 30.2366 24.7486 29.4267 25.8802C30.1847 26.3976 31.0822 26.672 32 26.6669C33.2377 26.6669 34.4247 26.1752 35.2998 25.3001C36.175 24.4249 36.6667 23.2379 36.6667 22.0002C36.6667 20.7626 36.175 19.5756 35.2998 18.7004C34.4247 17.8252 33.2377 17.3336 32 17.3336Z" fill="white"/>
</svg>
