<svg width="26" height="26" viewBox="0 0 26 26" fill="none" xmlns="http://www.w3.org/2000/svg">
<circle cx="13" cy="13" r="13" fill="#585FCD"/>
<path d="M14.1939 12.6018L16.7143 15.9182H8.75511L10.7449 13.3314L12.1378 15.1223L14.0612 12.6018H14.1939ZM10.4133 12.6018C10.9439 12.6018 11.4082 12.1376 11.4082 11.6069C11.4082 11.0763 10.9439 10.612 10.4133 10.612C9.88266 10.612 9.41838 11.0763 9.41838 11.6069C9.41838 12.1376 9.88266 12.6018 10.4133 12.6018ZM19.3674 9.28552V17.2447C19.3674 17.9743 18.7704 18.5712 18.0408 18.5712H7.42858C6.69899 18.5712 6.10205 17.9743 6.10205 17.2447V9.28552C6.10205 8.55592 6.69899 7.95898 7.42858 7.95898H18.0408C18.7704 7.95898 19.3674 8.55592 19.3674 9.28552ZM18.0408 11.1427V9.28552H7.42858V17.2447H18.0408V11.1427Z" fill="white"/>
</svg>
