<svg width="20" height="20" viewBox="0 0 20 20" fill="none" xmlns="http://www.w3.org/2000/svg">
<path d="M14.7173 9.34129C14.7173 10.4899 14.668 11.6386 14.5603 12.7778C14.5693 12.6928 14.576 12.611 14.585 12.526C14.4729 13.6841 14.3091 14.861 13.9839 15.9436C14.0064 15.8681 14.0288 15.7926 14.0512 15.717C13.9503 16.0506 13.8314 16.3653 13.6834 16.658C13.6408 16.743 13.8112 16.4409 13.7327 16.5668C13.7148 16.5951 13.6991 16.6234 13.6811 16.6517C13.6497 16.6989 13.6161 16.7461 13.5824 16.7902C13.5735 16.8028 13.5623 16.8122 13.5533 16.8248C13.5129 16.8814 13.7013 16.6769 13.6542 16.7178C13.6363 16.7335 13.6183 16.7556 13.6004 16.7713C13.5645 16.8028 13.5286 16.8311 13.4905 16.8531L13.652 16.7587C13.6026 16.787 13.5533 16.8059 13.5017 16.8185C13.5623 16.8059 13.6206 16.7965 13.6811 16.7839C13.6565 16.787 13.6295 16.7902 13.6049 16.7902C13.717 16.8342 13.8314 16.8752 13.9436 16.9192C13.8179 16.8374 13.6991 16.7745 13.5578 16.7745C13.6183 16.787 13.6766 16.7965 13.7372 16.8091C13.6251 16.7493 13.5129 16.6895 13.403 16.6265L13.5645 16.721C13.7394 16.9035 13.6161 16.7745 13.578 16.7241C13.5488 16.6863 13.5219 16.6454 13.4972 16.6014C13.4838 16.5825 13.4725 16.5605 13.4591 16.5384C13.3963 16.4377 13.5712 16.7524 13.5152 16.6391C13.4882 16.5856 13.4613 16.5353 13.4367 16.4818C13.3245 16.2363 13.2325 15.9751 13.1496 15.7045C13.172 15.78 13.1944 15.8555 13.2168 15.9311C12.8939 14.8454 12.7279 13.6684 12.6158 12.5072C12.6247 12.5921 12.6315 12.674 12.6404 12.7589C12.4274 10.4963 12.4274 8.17697 12.6404 5.91405C12.6315 5.99902 12.6247 6.08083 12.6158 6.1658C12.7279 5.00145 12.8916 3.82134 13.2168 2.73249C13.1944 2.80801 13.172 2.88354 13.1496 2.95907C13.237 2.67269 13.3357 2.38947 13.4591 2.13141C13.4995 2.04959 13.6161 1.87336 13.4456 2.14714C13.4748 2.09994 13.5017 2.04959 13.5331 2.00553C13.5623 1.96147 13.5914 1.92371 13.6228 1.8828C13.6677 1.81986 13.6004 1.94574 13.5667 1.93945C13.5869 1.94259 13.6766 1.84504 13.7013 1.8293L13.5398 1.92371C13.5959 1.88909 13.652 1.86706 13.7125 1.85448C13.652 1.86707 13.5937 1.87651 13.5331 1.88909C13.5824 1.8828 13.6295 1.8828 13.6789 1.88909C13.6183 1.87651 13.56 1.86707 13.4995 1.85448C13.551 1.86707 13.6004 1.88595 13.6497 1.91427C13.5959 1.8828 13.5421 1.85133 13.4882 1.81986C13.5241 1.84189 13.56 1.86707 13.5937 1.89539C13.6116 1.91113 13.6295 1.93001 13.6475 1.94889C13.6923 1.9898 13.4882 1.76008 13.578 1.87651C13.6116 1.92057 13.6452 1.96462 13.6766 2.01183C13.6946 2.04015 13.7125 2.06533 13.7282 2.09365C13.735 2.10624 13.7439 2.11883 13.7507 2.13142C13.791 2.19436 13.6318 1.90484 13.6856 2.01183C13.8336 2.30765 13.9525 2.62232 14.0535 2.9528L13.9862 2.72622C14.3091 3.80874 14.4751 4.98575 14.5873 6.14383C14.5783 6.05886 14.5716 5.97704 14.5626 5.89207C14.6702 7.04387 14.7173 8.19251 14.7173 9.34115C14.7173 9.83522 15.0269 10.3073 15.3902 10.2852C15.7536 10.2632 16.0631 9.86982 16.0631 9.34115C16.0631 8.06977 15.998 6.80788 15.8724 5.54911C15.7782 4.58927 15.6414 3.62949 15.4149 2.71373C15.231 1.97106 14.9954 1.19692 14.594 0.630457C14.4123 0.372406 14.1835 0.161564 13.9323 0.0608616C13.468 -0.121663 13.0037 0.123803 12.6538 0.564373C12.212 1.12453 11.963 1.98681 11.7746 2.75779C11.5122 3.83403 11.3776 4.96064 11.2767 6.08413C11.0479 8.62689 11.0882 11.2452 11.4 13.7692C11.5256 14.7982 11.7163 15.8052 12.0168 16.7619C12.1379 17.149 12.2904 17.4951 12.4789 17.8287C12.5394 17.9357 12.6045 18.0396 12.6807 18.1308C12.8041 18.2787 12.9073 18.37 13.0553 18.4518C13.0957 18.4739 13.1383 18.4959 13.1786 18.5179C13.3043 18.5871 13.4142 18.6595 13.5555 18.6595C13.4949 18.6469 13.4366 18.6375 13.376 18.6249C13.3872 18.628 13.3985 18.6312 13.4097 18.6343L13.2482 18.5399C13.4747 18.6878 13.6452 18.7004 13.8807 18.628C13.9839 18.5966 14.0848 18.5336 14.179 18.4707C14.3293 18.37 14.4638 18.2189 14.5805 18.0584C14.8429 17.6965 15.038 17.2308 15.1861 16.7619C15.6257 15.3647 15.8208 13.8636 15.9442 12.3531C16.0271 11.3523 16.063 10.3422 16.063 9.33515C16.063 8.84108 15.7535 8.36904 15.3902 8.39108C15.0268 8.42255 14.7195 8.81277 14.7173 9.34148L14.7173 9.34129Z" fill="#818181"/>
<path d="M13.3471 16.5888L12.2706 16.0413C11.4317 15.6164 10.5929 15.1884 9.75403 14.7636C8.80528 14.2821 7.85878 13.8007 6.91002 13.3191C6.21247 12.9635 5.51271 12.611 4.81515 12.2555C4.39124 12.0415 3.96959 11.8243 3.54568 11.6103C3.49633 11.5852 3.44923 11.56 3.39989 11.538C3.56362 11.8401 3.7296 12.1453 3.89332 12.4475V10.3453V7.00642V6.23228C3.72958 6.53439 3.56361 6.83966 3.39989 7.14176C3.7296 6.97498 4.0593 6.80819 4.38674 6.6414C5.1785 6.23859 5.968 5.83895 6.75972 5.43614C7.71746 4.95151 8.6729 4.46375 9.63064 3.97912C10.4583 3.55743 11.2859 3.13886 12.1113 2.71717C12.5128 2.51262 12.921 2.32381 13.318 2.10352C13.3224 2.10037 13.3292 2.09723 13.3359 2.09408C13.1183 1.56854 12.8985 1.04298 12.681 0.517484C12.1763 1.13114 11.9094 2.13189 11.7165 2.99729C11.4339 4.26235 11.2971 5.59668 11.2141 6.91525C11.1221 8.35656 11.1154 9.81358 11.1849 11.2549C11.2522 12.6175 11.3801 13.9991 11.6425 15.3176C11.7591 15.9092 11.9094 16.4914 12.1045 17.0422C12.2503 17.4513 12.441 17.8698 12.6922 18.1656C12.8312 18.3292 12.9793 18.4425 13.1677 18.4425C13.3336 18.4425 13.5288 18.3387 13.6432 18.1656C13.872 17.8163 13.9303 17.1712 13.6432 16.8313C13.5849 16.762 13.5333 16.6897 13.4839 16.611C13.4705 16.589 13.457 16.5512 13.4413 16.5386C13.4548 16.5512 13.5602 16.7683 13.4974 16.6393C13.4727 16.589 13.448 16.5418 13.4256 16.4914C13.3157 16.2491 13.226 15.991 13.1453 15.7267C13.1677 15.8022 13.1901 15.8777 13.2125 15.9533C12.8896 14.8676 12.7236 13.6906 12.6115 12.5294C12.6204 12.6144 12.6272 12.6962 12.6361 12.7811C12.4208 10.5027 12.4208 8.16144 12.6384 5.88275C12.6294 5.96772 12.6227 6.04954 12.6137 6.13451C12.7258 4.97643 12.8896 3.79948 13.2148 2.7169L13.1475 2.94348C13.226 2.68543 13.3135 2.43367 13.4211 2.19448C13.4436 2.14413 13.4682 2.09378 13.4929 2.04658C13.5849 1.8672 13.3763 2.24483 13.4727 2.08119C13.5221 1.99937 13.5736 1.92385 13.6297 1.85461C13.845 1.59341 13.8877 1.04272 13.7351 0.709138C13.5826 0.375555 13.2619 0.130129 12.9748 0.274858C12.6451 0.441644 12.3154 0.608436 11.9879 0.775223C11.1962 1.17803 10.4067 1.57768 9.61496 1.98049C8.65722 2.46512 7.70178 2.95287 6.74404 3.43751C5.9164 3.85919 5.0888 4.27777 4.26341 4.69945C3.86193 4.904 3.4582 5.10226 3.05672 5.3131C3.04999 5.31625 3.04551 5.3194 3.03878 5.32254C2.75617 5.46415 2.54535 5.79458 2.54535 6.23203V8.33418V11.6731V12.4472C2.54535 12.8909 2.75842 13.2151 3.03878 13.3567L4.30379 13.9987C4.94527 14.3259 5.58672 14.6501 6.23046 14.9774C7.16798 15.4526 8.10328 15.9278 9.0408 16.4061C9.91327 16.8498 10.7858 17.2935 11.656 17.7341C12.0934 17.9544 12.5263 18.1967 12.9681 18.4012C12.9749 18.4044 12.9816 18.4075 12.9861 18.4107C13.318 18.5806 13.7374 18.2219 13.8137 17.7499C13.9034 17.218 13.7016 16.768 13.3472 16.5886L13.3471 16.5888Z" fill="#818181"/>
<path d="M2.54756 6.2513V8.33774V11.6672V12.4351L3.22042 11.491H2.25596H1.61226C1.49787 11.491 1.379 11.5004 1.26461 11.4815C1.32517 11.4941 1.38348 11.5036 1.44404 11.5162C1.38348 11.5036 1.32741 11.4815 1.27134 11.4501C1.32517 11.4815 1.379 11.513 1.43283 11.5445C1.39694 11.5225 1.3633 11.4941 1.32965 11.4658C1.23769 11.3934 1.46647 11.6452 1.35208 11.4847C1.23994 11.3273 1.41712 11.6452 1.36554 11.5162C1.34535 11.469 1.32741 11.4218 1.31171 11.3714C1.33414 11.4469 1.35657 11.5225 1.379 11.598C1.35657 11.5193 1.34087 11.4406 1.3319 11.3557C1.34087 11.4406 1.3476 11.5225 1.35657 11.6074C1.34311 11.4375 1.34984 11.2613 1.34984 11.0882V10.0528V7.69895C1.34984 7.49439 1.33863 7.28355 1.35657 7.07902C1.3476 7.16399 1.34087 7.24581 1.3319 7.33078C1.34087 7.24581 1.35657 7.16713 1.379 7.08846C1.35657 7.16399 1.33414 7.23952 1.31171 7.31504C1.32741 7.26469 1.3476 7.21749 1.36554 7.17029C1.41713 7.04126 1.23769 7.36225 1.35208 7.20176C1.46423 7.04441 1.23769 7.29302 1.32965 7.22064C1.3633 7.19232 1.39694 7.16714 1.43283 7.14511C1.379 7.17658 1.32517 7.20805 1.27134 7.23952C1.32741 7.20805 1.38348 7.18602 1.44404 7.17343C1.38348 7.18602 1.32517 7.19546 1.26461 7.20805C1.379 7.18917 1.49562 7.19861 1.61226 7.19861H2.25596H3.22042C3.57256 7.19861 3.90899 6.76433 3.89328 6.25454C3.87758 5.74158 3.59722 5.31047 3.22042 5.31047H1.48668C1.33192 5.31047 1.18164 5.31991 1.02688 5.36711C0.573806 5.51187 0.232906 6.01224 0.0736519 6.60702C-0.0183077 6.95318 0.00187896 7.33714 0.00187896 7.69904V10.6886C0.00187896 10.9498 -0.000363967 11.211 0.00187896 11.4722C0.0153362 12.5328 0.618675 13.373 1.37455 13.3793C1.97116 13.3856 2.56778 13.3793 3.16214 13.3793H3.21822C3.58157 13.3793 3.89108 12.9482 3.89108 12.4352V10.3488V7.01932V6.25145C3.89108 5.75739 3.58156 5.28534 3.21822 5.30738C2.85711 5.32941 2.54757 5.72278 2.54757 6.25145L2.54756 6.2513Z" fill="#818181"/>
<path d="M12.4231 9.34107C12.4231 9.47324 12.4164 9.60541 12.4051 9.73758C12.4141 9.65261 12.4208 9.5708 12.4298 9.48583C12.4051 9.73443 12.3603 9.97361 12.2908 10.2033L12.358 9.97677C12.3244 10.0838 12.2885 10.1845 12.2437 10.2852C12.2369 10.3009 12.1876 10.4268 12.1764 10.4236C12.1741 10.4236 12.2885 10.2317 12.228 10.3292C12.2123 10.3544 12.1966 10.3796 12.1809 10.4048C12.1562 10.4425 12.1293 10.4803 12.1023 10.5149C12.0889 10.5306 12.0732 10.5464 12.0597 10.5652C12.0104 10.6313 12.1898 10.4394 12.1315 10.4866C12.0665 10.5401 12.0059 10.5967 11.9364 10.6376C11.9902 10.6062 12.044 10.5747 12.0979 10.5432C12.0238 10.5841 11.9498 10.6125 11.8736 10.625C11.9341 10.6125 11.9924 10.603 12.053 10.5904C11.9924 10.5999 11.9341 10.5936 11.8736 10.5936L12.5464 11.5376C12.4612 10.0743 12.4612 8.5984 12.5442 7.13821L11.8713 8.08229C11.9341 8.08229 11.9902 8.07599 12.053 8.08543C11.9924 8.07284 11.9341 8.0634 11.8736 8.05082C11.9521 8.06655 12.0261 8.09487 12.0979 8.13264C12.044 8.10117 11.9902 8.0697 11.9364 8.03823C12.0014 8.07599 12.0597 8.12634 12.1225 8.17984C12.1943 8.24278 12.053 8.11061 12.0508 8.10117C12.053 8.11375 12.0844 8.14208 12.0934 8.15152C12.1248 8.18928 12.1539 8.23334 12.1831 8.27425C12.2055 8.30886 12.293 8.45992 12.2145 8.31831C12.136 8.17669 12.2212 8.33719 12.2369 8.37495C12.284 8.4788 12.3222 8.58895 12.358 8.70223L12.2908 8.47565C12.3603 8.70538 12.4051 8.94455 12.4298 9.19317C12.4208 9.1082 12.4141 9.02639 12.4051 8.94142C12.4164 9.07674 12.4231 9.2089 12.4231 9.34107C12.4253 9.83514 12.7304 10.3072 13.0959 10.2851C13.4571 10.2631 13.7711 9.86975 13.7688 9.34108C13.7643 8.50715 13.5826 7.71413 13.2081 7.06584C13.0645 6.81723 12.8806 6.5938 12.6742 6.45219C12.4096 6.26966 12.1606 6.20043 11.869 6.19728C11.4833 6.19414 11.2253 6.63471 11.1962 7.14135C11.1132 8.6047 11.1132 10.0806 11.1984 11.5408C11.2276 12.0506 11.4833 12.4849 11.8713 12.4849C12.1606 12.4849 12.4006 12.4156 12.663 12.2394C12.8716 12.1009 13.0645 11.8712 13.2081 11.6163C13.5804 10.9617 13.7621 10.1782 13.7688 9.34108C13.7711 8.84701 13.457 8.37495 13.0959 8.39699C12.7281 8.42217 12.4253 8.8124 12.4231 9.34107Z" fill="#818181"/>
<path d="M17.2766 10.2348H19.0709H19.3266C19.6787 10.2348 20.0152 9.80054 19.9995 9.29075C19.9838 8.7778 19.7034 8.34668 19.3266 8.34668H17.5323H17.2766C16.9245 8.34668 16.588 8.78096 16.6037 9.29075C16.6194 9.80371 16.8998 10.2348 17.2766 10.2348Z" fill="#818181"/>
<path d="M17.2073 4.93554C17.685 4.43202 18.165 3.92851 18.6427 3.425C18.71 3.35262 18.7795 3.28024 18.8468 3.20786C18.9926 3.05366 19.1048 2.89946 19.1564 2.64456C19.2012 2.41798 19.181 2.11902 19.0891 1.9176C18.9971 1.7162 18.8581 1.53997 18.6876 1.48332C18.5239 1.42982 18.3108 1.42982 18.1695 1.57773C17.6918 2.08124 17.2117 2.58475 16.734 3.08826C16.6667 3.16064 16.5972 3.23302 16.5299 3.3054C16.3841 3.4596 16.272 3.6138 16.2204 3.86871C16.1755 4.09529 16.1957 4.39425 16.2877 4.59566C16.3796 4.79708 16.5187 4.9733 16.6892 5.02994C16.8551 5.08344 17.066 5.08659 17.2073 4.93554Z" fill="#818181"/>
<path d="M16.5298 15.28C17.0075 15.7835 17.4875 16.287 17.9652 16.7906C18.0325 16.8629 18.102 16.9353 18.1693 17.0077C18.2994 17.1462 18.5372 17.1619 18.6874 17.1021C18.8444 17.0423 19.0127 16.8724 19.0889 16.6678C19.1719 16.4475 19.2123 16.1832 19.1562 15.9409C19.0979 15.6923 18.9947 15.5318 18.8467 15.3776C18.369 14.874 17.889 14.3705 17.4112 13.867C17.3439 13.7946 17.2744 13.7223 17.2071 13.6499C17.077 13.5114 16.8393 13.4957 16.689 13.5555C16.532 13.6153 16.3638 13.7852 16.2875 13.9898C16.2045 14.21 16.1642 14.4744 16.2202 14.7167C16.2763 14.9622 16.3817 15.1227 16.5298 15.28Z" fill="#818181"/>
<path d="M3.5524 12.6926C3.46942 13.344 3.38643 13.9986 3.30344 14.65C3.17335 15.6823 3.04102 16.7144 2.91093 17.7498C2.87953 17.9984 2.87056 18.291 2.80103 18.5271C2.82346 18.4515 2.84589 18.376 2.86832 18.3005C2.85934 18.3257 2.85037 18.3477 2.83916 18.3729C2.91542 18.2438 2.9356 18.2061 2.89747 18.2596C2.85934 18.3099 2.88626 18.2816 2.97822 18.1746C2.96252 18.1903 2.94458 18.2029 2.92664 18.2124L3.08812 18.118C3.06121 18.1337 3.03429 18.1431 3.00514 18.1526C3.0657 18.14 3.12401 18.1305 3.18457 18.118C3.1442 18.1243 3.10607 18.1243 3.0657 18.118C3.12626 18.1305 3.18457 18.14 3.24513 18.1526C3.02533 18.0991 2.80551 18.0424 2.58572 17.9889C2.44218 17.9543 2.29863 17.9166 2.15734 17.8819C2.07435 17.8599 1.98688 17.8473 1.90838 17.8033L2.06987 17.8977C2.05192 17.8851 2.03622 17.8725 2.01828 17.8568C2.11024 17.9638 2.13715 17.9921 2.09903 17.9386C2.06314 17.8851 2.08333 17.9228 2.15959 18.0519C2.14837 18.0298 2.1394 18.0047 2.13267 17.9826C2.1551 18.0582 2.17753 18.1337 2.19996 18.2092C2.18874 18.1715 2.18202 18.1337 2.17529 18.0928C2.18426 18.1778 2.19099 18.2596 2.19996 18.3445C2.19547 18.2879 2.19547 18.2344 2.19996 18.1778C2.19099 18.2627 2.18426 18.3445 2.17529 18.4295C2.25827 17.7844 2.33902 17.1361 2.42201 16.491C2.55209 15.4619 2.68218 14.4297 2.81451 13.4007C2.84367 13.1646 2.87507 12.9286 2.90423 12.6926C2.68891 12.9223 2.47134 13.1552 2.25602 13.3849H3.22048L2.54762 12.4408V12.4534C2.54762 12.8971 2.7607 13.2213 3.04105 13.3629C3.36851 13.5297 3.69373 13.6933 4.02118 13.8601C4.35313 14.0301 4.77254 13.6713 4.84882 13.1993C4.93405 12.6674 4.73443 12.2175 4.37783 12.038C4.05036 11.8713 3.72515 11.7076 3.3977 11.5408C3.56143 11.8429 3.72741 12.1482 3.89113 12.4503V12.4377C3.89113 11.9279 3.58385 11.4937 3.21827 11.4937H2.2538C1.98241 11.4937 1.65493 11.7832 1.60559 12.186C1.48896 13.1017 1.37457 14.0175 1.25794 14.9301C1.13234 15.9214 0.99776 16.9159 0.881131 17.9103C0.849731 18.1841 0.831788 18.4421 0.90356 18.7096C1.02468 19.1691 1.28485 19.5562 1.637 19.66C1.78054 19.7041 1.92633 19.7324 2.06989 19.767C2.29642 19.8237 2.52296 19.8803 2.74726 19.937C2.79436 19.9496 2.84147 19.9621 2.88856 19.9716C3.24743 20.0566 3.5816 19.9559 3.85077 19.5971C4.12217 19.2352 4.14684 18.7443 4.20739 18.2659C4.28365 17.6617 4.35991 17.0607 4.43617 16.4565C4.57074 15.3896 4.70756 14.326 4.84213 13.2592C4.84438 13.2372 4.84662 13.2183 4.84886 13.1962C4.88026 12.9413 4.87802 12.699 4.78158 12.4693C4.70083 12.2742 4.53934 12.0854 4.3801 12.035C4.05263 11.928 3.61975 12.1735 3.55245 12.6927L3.5524 12.6926Z" fill="#818181"/>
</svg>
