<svg width="16" height="16" viewBox="0 0 16 16" fill="none" xmlns="http://www.w3.org/2000/svg">
<path d="M10.5 15.5L5.5 13.75L1.625 15.25C1.34722 15.3611 1.09028 15.3297 0.854167 15.1558C0.618056 14.9819 0.5 14.7494 0.5 14.4583V2.79167C0.5 2.61111 0.552222 2.45139 0.656667 2.3125C0.761111 2.17361 0.903333 2.06944 1.08333 2L5.5 0.5L10.5 2.25L14.375 0.75C14.6528 0.638889 14.9097 0.670278 15.1458 0.844167C15.3819 1.01806 15.5 1.25056 15.5 1.54167V13.2083C15.5 13.3889 15.4478 13.5486 15.3433 13.6875C15.2389 13.8264 15.0967 13.9306 14.9167 14L10.5 15.5ZM9.66667 13.4583V3.70833L6.33333 2.54167V12.2917L9.66667 13.4583ZM11.3333 13.4583L13.8333 12.625V2.75L11.3333 3.70833V13.4583ZM2.16667 13.25L4.66667 12.2917V2.54167L2.16667 3.375V13.25Z" fill="#737373"/>
</svg>
