<svg width="15" height="15" viewBox="0 0 15 15" fill="none" xmlns="http://www.w3.org/2000/svg">
<g clip-path="url(#clip0_3153_75819)">
<path d="M9.6267 0H4.81337C4.15154 0 3.61004 0.5415 3.61004 1.20333V10.83C3.61004 11.4918 4.15154 12.0333 4.81337 12.0333H12.0334C12.6952 12.0333 13.2367 11.4918 13.2367 10.83V3.61L9.6267 0ZM12.0334 10.83H4.81337V1.20333H9.02504V4.21167H12.0334V10.83ZM2.4067 2.40667V13.2367H12.0334V14.44H2.4067C1.74487 14.44 1.20337 13.8985 1.20337 13.2367V2.40667H2.4067ZM6.0167 6.01667V7.22H10.83V6.01667H6.0167ZM6.0167 8.42333V9.62667H9.02504V8.42333H6.0167Z" fill="#E53E3E"/>
</g>
<defs>
<clipPath id="clip0_3153_75819">
<rect width="14.44" height="14.44" fill="white"/>
</clipPath>
</defs>
</svg>
