<svg width="19" height="18" viewBox="0 0 19 18" fill="none" xmlns="http://www.w3.org/2000/svg">
<g clip-path="url(#clip0_3637_64673)">
<path d="M16.445 9.61291H13.5823V8.18156H16.445V9.61291ZM16.445 10.4308H13.5823V11.8621H16.445V10.4308ZM16.445 3.68311H13.5823V5.11442H16.445V3.68311ZM16.445 5.93233H13.5823V7.36365H16.445V5.93233ZM16.445 12.68H13.5823V14.1114H16.445V12.68V12.68ZM18.4223 15.5018C18.3405 15.9271 17.8293 15.9373 17.4878 15.9517H11.1286V17.7919H9.85884L0.5 16.1561V1.84489L9.91407 0.207031H11.1286V1.8367H17.269C17.6146 1.85101 17.9949 1.82647 18.2955 2.03298C18.5061 2.3356 18.4857 2.72004 18.5 3.06763L18.4918 13.7126C18.4816 14.3076 18.547 14.915 18.4223 15.5018ZM7.99809 12.2936C7.43376 11.1485 6.8592 10.0116 6.29688 8.86654C6.85305 7.75216 7.40107 6.6337 7.94701 5.5152C7.48284 5.5377 7.01867 5.56632 6.55658 5.59905C6.21099 6.43943 5.80817 7.25734 5.53828 8.12636C5.28677 7.30641 4.95349 6.51712 4.64882 5.71763C4.19897 5.74217 3.74911 5.76875 3.29928 5.79533C3.77364 6.84228 4.27873 7.87482 4.73879 8.92789C4.19693 9.95027 3.68983 10.987 3.16432 12.0155C3.6121 12.0339 4.05992 12.0523 4.50771 12.0584C4.82672 11.2446 5.22338 10.4615 5.50147 9.6313C5.75094 10.5228 6.17418 11.3469 6.52181 12.1995C7.01459 12.2343 7.50531 12.265 7.99809 12.2936ZM17.5248 2.80782H11.1286V3.68311H12.7645V5.11442H11.1286V5.93233H12.7645V7.36365H11.1286V8.18156H12.7645V9.61291H11.1286V10.4308H12.7645V11.8621H11.1286V12.68H12.7645V14.1114H11.1286V15.057H17.5248V2.80782Z" fill="white"/>
</g>
<defs>
<clipPath id="clip0_3637_64673">
<rect width="18" height="18" fill="white" transform="translate(0.5)"/>
</clipPath>
</defs>
</svg>
