<svg width="24" height="24" viewBox="0 0 24 24" fill="none" xmlns="http://www.w3.org/2000/svg">
<path d="M11.4258 14.8244L11.4257 14.8243L7.67572 11.0743L7.66948 11.068L7.6696 11.0679C7.52608 10.9139 7.44794 10.7102 7.45166 10.4997C7.45537 10.2892 7.54064 10.0884 7.68951 9.93951C7.83837 9.79064 8.0392 9.70537 8.2497 9.70166C8.46019 9.69794 8.66391 9.77608 8.81793 9.9196L8.82436 9.92558L8.82425 9.92569L11.1875 12.2882V3.75C11.1875 3.53451 11.2731 3.32785 11.4255 3.17548C11.4255 3.17548 11.4255 3.17548 11.4255 3.17548L11.6015 3.3515L11.4258 14.8244ZM11.4258 14.8244C11.5782 14.9765 11.7847 15.062 12 15.062C12.2153 15.062 12.4218 14.9765 12.5742 14.8244L12.5743 14.8243M11.4258 14.8244L12.5743 14.8243M12.5743 14.8243L16.3243 11.0743L16.3244 11.0744M12.5743 14.8243L16.3244 11.0744M16.3244 11.0744L16.3304 11.0679M16.3244 11.0744L16.3304 11.0679M16.3304 11.0679C16.4739 10.9139 16.5521 10.7102 16.5483 10.4997C16.5446 10.2892 16.4594 10.0884 16.3105 9.93951C16.1616 9.79064 15.9608 9.70537 15.7503 9.70166C15.5398 9.69794 15.3361 9.77608 15.1821 9.9196L15.182 9.91948M16.3304 11.0679L15.182 9.91948M15.182 9.91948L15.1758 9.92569M15.182 9.91948L15.1758 9.92569M15.1758 9.92569L12.8125 12.2882L15.1758 9.92569ZM21.0625 19.5V14.25C21.0625 14.0345 20.9769 13.8278 20.8245 13.6755C20.6722 13.5231 20.4655 13.4375 20.25 13.4375C20.0345 13.4375 19.8278 13.5231 19.6755 13.6755C19.5231 13.8278 19.4375 14.0345 19.4375 14.25V19.4375H4.5625V14.25C4.5625 14.0345 4.4769 13.8278 4.32452 13.6755C4.17215 13.5231 3.96549 13.4375 3.75 13.4375C3.53451 13.4375 3.32785 13.5231 3.17548 13.6755C3.0231 13.8278 2.9375 14.0345 2.9375 14.25V19.5C2.9375 19.9144 3.10212 20.3118 3.39515 20.6049C3.68817 20.8979 4.0856 21.0625 4.5 21.0625H19.5C19.9144 21.0625 20.3118 20.8979 20.6049 20.6049C20.8979 20.3118 21.0625 19.9144 21.0625 19.5Z" fill="#585FCD" stroke="#585FCD" stroke-width="0.5"/>
</svg>
