<svg width="20" height="18" viewBox="0 0 20 18" fill="none" xmlns="http://www.w3.org/2000/svg">
<path opacity="0.4" d="M19.25 6.15457C16.94 2.52457 13.56 0.43457 10 0.43457C8.22 0.43457 6.49 0.95457 4.91 1.92457C3.33 2.90457 1.91 4.33457 0.75 6.15457C-0.25 7.72457 -0.25 10.2746 0.75 11.8446C3.06 15.4846 6.44 17.5646 10 17.5646C11.78 17.5646 13.51 17.0446 15.09 16.0746C16.67 15.0946 18.09 13.6646 19.25 11.8446C20.25 10.2846 20.25 7.72457 19.25 6.15457ZM10 13.0446C7.76 13.0446 5.96 11.2346 5.96 9.00457C5.96 6.77457 7.76 4.96457 10 4.96457C12.24 4.96457 14.04 6.77457 14.04 9.00457C14.04 11.2346 12.24 13.0446 10 13.0446Z" fill="#585FCD"/>
<path d="M10.0004 6.14551C8.43039 6.14551 7.15039 7.42551 7.15039 9.00551C7.15039 10.5755 8.43039 11.8555 10.0004 11.8555C11.5704 11.8555 12.8604 10.5755 12.8604 9.00551C12.8604 7.43551 11.5704 6.14551 10.0004 6.14551Z" fill="#585FCD"/>
</svg>
