<svg width="18" height="18" viewBox="0 0 18 18" fill="none" xmlns="http://www.w3.org/2000/svg">
<path d="M4.05 1.5752H13.95C14.775 1.5752 15.45 2.2502 15.45 3.0752V4.7252C15.45 5.3252 15.075 6.0752 14.7 6.4502L11.475 9.30019C11.025 9.67519 10.725 10.4252 10.725 11.0252V14.2502C10.725 14.7002 10.425 15.3002 10.05 15.5252L9 16.2002C8.025 16.8002 6.675 16.1252 6.675 14.9252V10.9502C6.675 10.4252 6.375 9.7502 6.075 9.3752L3.225 6.3752C2.85 6.0002 2.55 5.3252 2.55 4.8752V3.1502C2.55 2.2502 3.225 1.5752 4.05 1.5752Z" stroke="#585FCD" stroke-width="1.5" stroke-miterlimit="10" stroke-linecap="round" stroke-linejoin="round"/>
<path opacity="0.4" d="M8.1975 1.5752L4.5 7.50019" stroke="#585FCD" stroke-width="1.5" stroke-miterlimit="10" stroke-linecap="round" stroke-linejoin="round"/>
</svg>
