<svg width="20" height="20" viewBox="0 0 20 20" fill="none" xmlns="http://www.w3.org/2000/svg">
<path d="M6.66669 18.5998C6.43335 18.5998 6.19167 18.5415 5.97501 18.4249C5.50001 18.1749 5.20835 17.6748 5.20835 17.1415V15.9582C2.69169 15.6999 1.04169 13.8498 1.04169 11.1998V6.19987C1.04169 3.3332 2.96669 1.4082 5.83335 1.4082H14.1667C17.0334 1.4082 18.9584 3.3332 18.9584 6.19987V11.1998C18.9584 14.0665 17.0334 15.9915 14.1667 15.9915H11.025L7.475 18.3582C7.23333 18.5166 6.95002 18.5998 6.66669 18.5998ZM5.83335 2.64986C3.68335 2.64986 2.29169 4.04153 2.29169 6.19153V11.1916C2.29169 13.3416 3.68335 14.7332 5.83335 14.7332C6.17502 14.7332 6.45835 15.0166 6.45835 15.3582V17.1332C6.45835 17.2416 6.52502 17.2916 6.56669 17.3166C6.60836 17.3416 6.6917 17.3666 6.78337 17.3082L10.4917 14.8416C10.5917 14.7749 10.7167 14.7332 10.8417 14.7332H14.175C16.325 14.7332 17.7167 13.3416 17.7167 11.1916V6.19153C17.7167 4.04153 16.325 2.64986 14.175 2.64986H5.83335Z" fill="#818181"/>
<path d="M9.99983 10.0918C9.65816 10.0918 9.37483 9.80846 9.37483 9.4668V9.29183C9.37483 8.32516 10.0831 7.85015 10.3498 7.66682C10.6581 7.45849 10.7581 7.31683 10.7581 7.10016C10.7581 6.68349 10.4165 6.3418 9.99983 6.3418C9.58316 6.3418 9.24152 6.68349 9.24152 7.10016C9.24152 7.44183 8.95818 7.72516 8.61652 7.72516C8.27485 7.72516 7.99152 7.44183 7.99152 7.10016C7.99152 5.99183 8.89149 5.0918 9.99983 5.0918C11.1082 5.0918 12.0081 5.99183 12.0081 7.10016C12.0081 8.05016 11.3082 8.52514 11.0498 8.70014C10.7248 8.91681 10.6248 9.0585 10.6248 9.29183V9.4668C10.6248 9.8168 10.3415 10.0918 9.99983 10.0918Z" fill="#818181"/>
<path d="M10 12.167C9.65 12.167 9.375 11.8837 9.375 11.542C9.375 11.2003 9.65833 10.917 10 10.917C10.3417 10.917 10.625 11.2003 10.625 11.542C10.625 11.8837 10.35 12.167 10 12.167Z" fill="#818181"/>
</svg>
