<svg width="274" height="217" viewBox="0 0 274 217" fill="none" xmlns="http://www.w3.org/2000/svg">
<path d="M27.9739 139.611C29.3871 182.731 122.098 177.992 165.794 159.749C221.084 136.669 243.695 100.679 227.316 59.1871C211.065 18.0763 147.875 9.21501 113.365 37.8146C96.3573 51.9176 87.3484 71.5288 70.5246 85.9647C50.5494 103.106 27.0766 112.658 27.9739 139.611Z" fill="#585FCD"/>
<path opacity="0.9" d="M27.9739 139.611C29.3871 182.731 122.098 177.992 165.794 159.749C221.084 136.669 243.695 100.679 227.316 59.1871C211.065 18.0763 147.875 9.21501 113.365 37.8146C96.3573 51.9176 87.3484 71.5288 70.5246 85.9647C50.5494 103.106 27.0766 112.658 27.9739 139.611Z" fill="white"/>
<path d="M137 216.5C212.663 216.5 274 213.433 274 209.649C274 205.865 212.663 202.797 137 202.797C61.337 202.797 0 205.865 0 209.649C0 213.433 61.337 216.5 137 216.5Z" fill="#F5F5F5"/>
<path d="M139.763 203.099L133.863 203.668L131.687 192.204L137.587 191.635L139.763 203.099Z" fill="#FFC3BD"/>
<path d="M166.175 204.202H160.282L158.82 192.514H164.713L166.175 204.202Z" fill="#FFC3BD"/>
<path d="M159.802 203.613H166.981C167.097 203.614 167.211 203.648 167.302 203.711C167.393 203.773 167.457 203.861 167.482 203.958L168.648 208.443C168.676 208.553 168.674 208.666 168.644 208.775C168.613 208.883 168.554 208.984 168.471 209.071C168.388 209.157 168.283 209.226 168.165 209.273C168.046 209.319 167.917 209.342 167.786 209.339C165.476 209.309 163.787 209.194 160.876 209.194C159.088 209.194 153.69 209.351 151.217 209.351C148.744 209.351 148.39 207.257 149.436 207.069C153.972 206.216 157.392 205.042 158.848 203.922C159.11 203.721 159.45 203.611 159.802 203.613Z" fill="#263238"/>
<path d="M133.771 202.802L140.13 202.196C140.247 202.184 140.365 202.207 140.464 202.262C140.563 202.316 140.638 202.397 140.674 202.493L142.42 206.833C142.463 206.937 142.478 207.048 142.465 207.157C142.451 207.267 142.409 207.373 142.341 207.466C142.273 207.56 142.181 207.639 142.073 207.698C141.964 207.757 141.841 207.795 141.713 207.807C139.402 208.001 136.06 208.207 133.156 208.491C129.765 208.818 129.199 209.599 125.207 209.514C122.784 209.466 122.169 207.36 123.186 207.19C127.822 206.421 128.712 205.822 132.372 203.347C132.767 203.053 133.253 202.863 133.771 202.802Z" fill="#263238"/>
<path d="M138.971 55.9122C136.993 57.3104 135.043 58.527 133.029 59.7739C131.015 61.0208 128.959 62.1951 126.839 63.3027C124.719 64.4104 122.55 65.4938 120.268 66.4683C117.94 67.5079 115.515 68.3804 113.018 69.0771C112.361 69.2526 111.718 69.404 110.976 69.5553C110.251 69.6916 109.517 69.7926 108.779 69.8579C107.45 69.985 106.207 70.0334 104.963 70.0879C102.483 70.1848 100.017 70.1787 97.6147 70.1666C92.7534 70.1182 87.9344 69.9184 83.0873 69.5613L83.0166 65.7723C87.7719 65.2517 92.5484 64.7978 97.2755 64.3438C99.6355 64.1198 101.996 63.8777 104.292 63.6175C105.444 63.4843 106.581 63.3269 107.627 63.1575C108.079 63.0883 108.528 62.9994 108.97 62.8911C109.379 62.7701 109.888 62.6309 110.383 62.4674C112.403 61.763 114.364 60.942 116.254 60.01C118.212 59.0476 120.162 58.0126 122.084 56.917C124.006 55.8214 125.921 54.6835 127.821 53.5274C129.722 52.3713 131.609 51.1426 133.389 49.9805L138.971 55.9122Z" fill="#FFC3BD"/>
<path d="M144.73 51.604C143.882 56.3736 132.16 63.6672 132.16 63.6672L123.745 54.7272C127.429 51.3566 131.338 48.1715 135.453 45.188C139.233 42.5368 145.649 46.4107 144.73 51.604Z" fill="#585FCD"/>
<path d="M84.6422 66.1609L81.3 64.1211L80.9326 70.5673C80.9326 70.5673 82.7839 70.5673 83.4975 69.4052L84.6422 66.1609Z" fill="#FFC3BD"/>
<path d="M78.2757 62.2441L77.5903 68.5572L80.9325 70.5668L81.2999 64.1205L78.2757 62.2441Z" fill="#FFC3BD"/>
<path opacity="0.2" d="M131.693 192.21L132.81 198.117L138.71 197.548L137.593 191.641L131.693 192.21Z" fill="black"/>
<path opacity="0.2" d="M164.713 192.514H158.82L159.576 198.542H165.469L164.713 192.514Z" fill="black"/>
<path d="M164.797 45.3383C165.236 45.4221 165.651 45.5803 166.017 45.8038C166.383 46.0272 166.693 46.3112 166.929 46.639C167.165 46.9669 167.322 47.3319 167.39 47.7125C167.458 48.0931 167.437 48.4816 167.327 48.855C166.049 53.4004 165.087 58.0066 164.444 62.6494C163.886 66.5595 163.554 70.2941 163.349 73.6776C162.854 81.6068 163.059 87.6536 162.784 89.7055L131.348 87.8412C128.154 66.4142 131.892 52.7348 133.997 47.1844C134.322 46.32 134.925 45.5519 135.738 44.9691C136.551 44.3864 137.54 44.0128 138.59 43.8917C139.798 43.7585 141.24 43.6254 142.766 43.5467C143.296 43.5467 143.84 43.5043 144.384 43.4922C148.856 43.529 153.322 43.7857 157.76 44.2609C158.601 44.3456 159.449 44.4546 160.275 44.5635C161.922 44.8117 163.497 45.0901 164.797 45.3383Z" fill="#263238"/>
<path d="M157.491 31.3145C156.346 34.9461 154.954 41.6406 157.759 44.2796C150.474 48.4802 145.825 54.3878 144.483 53.1046C143.776 52.4327 143.479 44.6307 144.398 43.4806C149.273 42.7845 149.4 39.7339 148.8 36.8225L157.491 31.3145Z" fill="#FFC3BD"/>
<path d="M157.194 42.7715C157.194 42.7715 145.316 47.2748 143.769 57.3346C147.033 54.0903 154.262 50.5615 154.262 50.5615L151.075 49.7806C153.101 49.1212 155.198 48.6366 157.336 48.334C156.982 46.9419 158.869 44.1697 158.869 44.1697L157.194 42.7715Z" fill="#585FCD"/>
<path d="M146.482 42.6094C146.482 42.6094 148.058 48.3596 143.748 57.3359C143.076 53.91 140.257 48.178 140.257 48.178L143.168 48.8498C143.168 48.8498 143.02 47.6937 140.667 46.1503C141.543 44.7097 144.285 43.0089 144.285 43.0089L146.482 42.6094Z" fill="#585FCD"/>
<path opacity="0.2" d="M153.958 33.5605L148.814 36.817C148.969 37.4952 149.051 38.184 149.062 38.8749C150.913 38.7599 153.57 37.1862 153.895 35.5519C154.057 34.897 154.079 34.2221 153.958 33.5605Z" fill="black"/>
<path d="M142.399 20.7942C139.523 20.8971 137.94 25.1401 140.851 28.6629C143.762 32.1856 146.264 20.655 142.399 20.7942Z" fill="#263238"/>
<path d="M156.565 24.5282C156.905 29.5278 157.399 32.4392 154.834 35.284C150.969 39.5694 143.494 38.0381 141.409 33.2261C139.544 28.8923 139.289 21.4412 144.695 18.887C145.881 18.317 147.218 18.0164 148.578 18.0137C149.939 18.011 151.277 18.3063 152.467 18.8716C153.656 19.4369 154.657 20.2534 155.375 21.2434C156.092 22.2334 156.502 23.3642 156.565 24.5282Z" fill="#FFC3BD"/>
<path d="M157.42 28.3664C152.997 25.9453 151.435 22.7555 151.096 21.1515C149.379 21.4965 140.858 24.8558 138.236 21.1515C135.615 17.4472 138.943 15.2681 143.818 17.5501C141.649 14.2694 143.621 12.6654 150.439 12.5202C157.258 12.3749 156.339 15.7645 156.339 15.7645C156.339 15.7645 161.497 13.8397 163.327 17.2293C165.44 21.1273 161.54 27.7793 157.42 28.3664Z" fill="#263238"/>
<path d="M155.174 14.8679C155.237 14.8679 157.753 15.3885 160.657 12.8887C160.141 15.0193 155.633 16.4417 155.633 16.4417L155.174 14.8679Z" fill="#263238"/>
<path d="M158.558 22.1858C155.845 21.3808 152.552 24.8309 153.767 28.9952C154.983 33.1595 162.225 23.2692 158.558 22.1858Z" fill="#263238"/>
<path d="M160.098 28.6875C159.976 29.3024 159.714 29.8905 159.326 30.4182C158.938 30.9459 158.432 31.4027 157.837 31.7624C156.24 32.7187 154.799 31.6292 154.707 30.0494C154.622 28.627 155.357 26.4177 157.215 26.0909C159.074 25.764 160.388 27.1622 160.098 28.6875Z" fill="#FFC3BD"/>
<path d="M140.215 144.684C141.628 129.927 152.015 89.0645 152.015 89.0645L131.348 87.8418C131.348 87.8418 123.377 128.396 122.77 143.794C122.134 159.804 129.652 195.376 129.652 195.376L139.544 194.408C139.544 194.408 138.788 159.507 140.215 144.684Z" fill="#585FCD"/>
<path opacity="0.5" d="M140.215 144.684C141.628 129.927 152.015 89.0645 152.015 89.0645L131.348 87.8418C131.348 87.8418 123.377 128.396 122.77 143.794C122.134 159.804 129.652 195.376 129.652 195.376L139.544 194.408C139.544 194.408 138.788 159.507 140.215 144.684Z" fill="white"/>
<path opacity="0.2" d="M144.228 102.9C140.059 107.464 139.989 123.48 141.6 135.331C143.133 126.785 145.55 115.962 147.676 106.883L144.228 102.9Z" fill="black"/>
<path d="M142.497 88.4961C142.497 88.4961 144.73 131.701 147.217 146.331C149.937 162.353 156.855 197.398 156.855 197.398H167.644C167.644 197.398 165.871 164.417 164.444 148.673C162.826 130.745 162.783 89.7309 162.783 89.7309L142.497 88.4961Z" fill="#585FCD"/>
<path opacity="0.5" d="M142.497 88.4961C142.497 88.4961 144.73 131.701 147.217 146.331C149.937 162.353 156.855 197.398 156.855 197.398H167.644C167.644 197.398 165.871 164.417 164.444 148.673C162.826 130.745 162.783 89.7309 162.783 89.7309L142.497 88.4961Z" fill="white"/>
<path d="M155.562 197.574H168.266V194.323L154.064 194.111L155.562 197.574Z" fill="#585FCD"/>
<path d="M129.214 196.321L141.028 195.171L140.597 191.902L127.369 193.01L129.214 196.321Z" fill="#585FCD"/>
<path d="M147.974 26.8165C148.03 27.2221 147.825 27.5792 147.514 27.6094C147.203 27.6397 146.914 27.3371 146.85 26.9315C146.787 26.526 146.999 26.1749 147.309 26.1447C147.62 26.1144 147.917 26.417 147.974 26.8165Z" fill="#263238"/>
<path d="M142.653 27.3673C142.709 27.7729 142.504 28.124 142.193 28.1603C141.882 28.1966 141.593 27.8879 141.536 27.4823C141.48 27.0768 141.685 26.7257 141.988 26.6955C142.292 26.6652 142.582 26.9618 142.653 27.3673Z" fill="#263238"/>
<path d="M144.363 27.3984C143.971 28.6909 143.375 29.9312 142.589 31.0846C142.941 31.2485 143.329 31.3448 143.728 31.3667C144.127 31.3887 144.527 31.3358 144.9 31.2117L144.363 27.3984Z" fill="#ED847E"/>
<path d="M149.422 25.1708C149.373 25.1843 149.321 25.1858 149.271 25.1751C149.221 25.1644 149.175 25.142 149.139 25.1103C148.902 24.8898 148.608 24.7201 148.28 24.615C147.953 24.5098 147.601 24.4722 147.253 24.505C147.212 24.515 147.169 24.5171 147.128 24.5111C147.086 24.505 147.046 24.491 147.012 24.4701C146.977 24.4492 146.948 24.4219 146.928 24.3902C146.907 24.3585 146.895 24.3233 146.893 24.2871C146.884 24.256 146.884 24.2237 146.891 24.1924C146.898 24.1611 146.913 24.1314 146.934 24.1052C146.955 24.0791 146.983 24.0569 147.014 24.0403C147.046 24.0237 147.082 24.0129 147.119 24.0086C147.557 23.9589 148.003 24.0006 148.419 24.1302C148.835 24.2598 149.208 24.4735 149.507 24.7531C149.533 24.7751 149.554 24.8015 149.569 24.8306C149.583 24.8597 149.591 24.891 149.591 24.9226C149.591 24.9542 149.583 24.9855 149.569 25.0146C149.554 25.0437 149.533 25.0701 149.507 25.0921C149.485 25.1228 149.456 25.1495 149.422 25.1708Z" fill="#263238"/>
<path d="M149.339 31.6329C148.66 31.7293 148.019 31.9643 147.469 32.318C146.919 32.6717 146.477 33.1336 146.179 33.6648C146.164 33.6956 146.163 33.7303 146.177 33.7615C146.192 33.7926 146.22 33.8177 146.255 33.8312C146.293 33.8444 146.335 33.8444 146.373 33.831C146.411 33.8177 146.441 33.7922 146.457 33.7601C146.74 33.2738 147.151 32.8511 147.659 32.5261C148.167 32.2011 148.758 31.9828 149.382 31.889C149.421 31.8805 149.454 31.8603 149.476 31.8321C149.499 31.804 149.508 31.7698 149.503 31.736C149.493 31.7053 149.472 31.6784 149.442 31.6596C149.412 31.6408 149.376 31.6314 149.339 31.6329Z" fill="#263238"/>
<path d="M140.13 26.0298C140.075 26.048 140.015 26.048 139.96 26.0298C139.891 26.0091 139.833 25.9658 139.8 25.9093C139.767 25.8527 139.761 25.7873 139.784 25.7271C139.919 25.3656 140.153 25.0369 140.466 24.7684C140.78 24.5 141.163 24.2995 141.586 24.1836C141.621 24.1755 141.659 24.1737 141.695 24.1782C141.732 24.1827 141.767 24.1934 141.799 24.2098C141.83 24.2262 141.858 24.2478 141.879 24.2735C141.901 24.2992 141.916 24.3283 141.925 24.3592C141.934 24.389 141.937 24.4202 141.932 24.4508C141.927 24.4814 141.915 24.5109 141.896 24.5374C141.878 24.564 141.853 24.5871 141.824 24.6053C141.795 24.6236 141.762 24.6366 141.727 24.6437C141.397 24.7367 141.098 24.8947 140.852 25.1049C140.607 25.3152 140.422 25.5718 140.314 25.8542C140.306 25.8955 140.284 25.934 140.252 25.9651C140.219 25.9962 140.177 26.0187 140.13 26.0298Z" fill="#263238"/>
<path d="M157.852 204.497C157.451 204.523 157.053 204.431 156.721 204.237C156.62 204.163 156.541 204.07 156.491 203.964C156.44 203.859 156.42 203.745 156.431 203.632C156.43 203.561 156.451 203.492 156.494 203.432C156.536 203.372 156.598 203.324 156.672 203.293C157.322 203.002 159.222 204.007 159.434 204.122C159.459 204.133 159.479 204.151 159.49 204.173C159.502 204.195 159.504 204.22 159.498 204.243C159.494 204.267 159.482 204.289 159.463 204.306C159.444 204.323 159.419 204.335 159.392 204.34C158.887 204.442 158.37 204.495 157.852 204.497ZM156.975 203.45C156.915 203.449 156.854 203.459 156.799 203.48C156.769 203.493 156.745 203.513 156.728 203.538C156.712 203.563 156.705 203.591 156.707 203.62C156.694 203.7 156.705 203.782 156.738 203.858C156.771 203.934 156.826 204.002 156.898 204.055C157.223 204.285 157.993 204.322 159.017 204.146C158.396 203.803 157.702 203.567 156.975 203.45Z" fill="#585FCD"/>
<path d="M159.363 204.317C159.34 204.322 159.316 204.322 159.293 204.317C158.685 204.032 157.505 202.924 157.632 202.368C157.653 202.279 157.709 202.2 157.79 202.143C157.871 202.086 157.972 202.054 158.077 202.053C158.183 202.04 158.291 202.047 158.393 202.074C158.495 202.1 158.59 202.144 158.671 202.204C159.377 202.682 159.497 204.141 159.497 204.202C159.502 204.223 159.498 204.245 159.486 204.265C159.475 204.285 159.457 204.301 159.434 204.311C159.412 204.319 159.387 204.321 159.363 204.317ZM158.197 202.271H158.141C157.957 202.271 157.943 202.362 157.936 202.392C157.858 202.725 158.642 203.56 159.215 203.953C159.173 203.377 158.926 202.826 158.508 202.374C158.422 202.309 158.312 202.273 158.197 202.271Z" fill="#585FCD"/>
<path d="M133.29 203.547C132.372 203.801 130.718 204.152 130.012 203.735C129.908 203.673 129.823 203.591 129.765 203.495C129.707 203.399 129.678 203.292 129.68 203.184C129.674 203.119 129.688 203.053 129.72 202.994C129.752 202.934 129.802 202.883 129.864 202.845C130.528 202.445 133.022 203.232 133.298 203.323C133.324 203.332 133.347 203.348 133.363 203.369C133.38 203.389 133.389 203.413 133.389 203.438C133.389 203.463 133.379 203.487 133.361 203.507C133.343 203.526 133.318 203.54 133.29 203.547ZM130.033 203.026C130.009 203.043 129.989 203.064 129.977 203.088C129.965 203.113 129.96 203.139 129.962 203.166C129.961 203.237 129.98 203.308 130.018 203.371C130.057 203.434 130.113 203.489 130.181 203.529C130.577 203.771 131.545 203.722 132.817 203.414C131.792 203.141 130.443 202.845 130.033 203.026Z" fill="#585FCD"/>
<path d="M133.291 203.548C133.254 203.56 133.214 203.56 133.177 203.548C132.436 203.348 130.895 202.398 130.931 201.823C130.931 201.683 131.022 201.508 131.397 201.441C131.533 201.414 131.674 201.411 131.812 201.432C131.949 201.454 132.08 201.501 132.195 201.568C133.008 202.022 133.347 203.384 133.361 203.384C133.365 203.405 133.363 203.426 133.356 203.446C133.349 203.466 133.336 203.484 133.319 203.499L133.291 203.548ZM131.305 201.732C131.213 201.774 131.206 201.823 131.206 201.847C131.206 202.192 132.252 202.948 133.022 203.251C132.88 202.686 132.537 202.172 132.04 201.78C131.957 201.729 131.863 201.694 131.763 201.677C131.663 201.661 131.559 201.663 131.46 201.683C131.406 201.69 131.354 201.704 131.305 201.726V201.732Z" fill="#585FCD"/>
<path d="M169.758 52.6149C169.609 54.5881 169.341 56.4221 169.051 58.3166C168.761 60.2112 168.394 62.0694 167.977 63.9457C167.157 67.7784 165.944 71.5416 164.352 75.1919L163.646 76.6022L163.469 76.9532L163.427 77.044L163.356 77.1772L163.144 77.5525C162.877 77.9882 162.55 78.3946 162.169 78.763C161.561 79.3574 160.845 79.8643 160.049 80.2641C159.404 80.5958 158.725 80.8774 158.021 81.1055C155.688 81.8276 153.247 82.2657 150.772 82.4068C146.273 82.6927 141.751 82.5485 137.29 81.9771L137.453 78.188L140.569 77.8854C141.614 77.7825 142.653 77.6433 143.685 77.5222C145.748 77.2619 147.79 76.9714 149.74 76.584C151.538 76.2709 153.287 75.7751 154.948 75.1071C155.394 74.9449 155.785 74.6888 156.085 74.3626C156.085 74.2718 155.88 74.6532 156.142 74.0479L156.608 72.8797C157.751 69.5332 158.624 66.1235 159.222 62.6746C159.562 60.9193 159.844 59.1459 160.127 57.3663C160.41 55.5868 160.629 53.777 160.834 52.0762L169.758 52.6149Z" fill="#FFC3BD"/>
<path d="M170.28 48.9574C173.163 53.0976 170.704 66.1232 170.704 66.1232L155.583 63.7021C155.583 63.7021 154.764 56.245 157.647 50.5191C160.777 44.3089 166.79 43.9336 170.28 48.9574Z" fill="#585FCD"/>
<path d="M133.241 89.8396L125.221 57.8807C124.837 56.5154 123.945 55.2944 122.679 54.4022C121.413 53.51 119.843 52.9951 118.205 52.9355H87.4824C89.1196 52.9971 90.6891 53.5126 91.9545 54.4045C93.22 55.2964 94.1129 56.5164 94.4988 57.8807L102.512 89.8396C102.897 91.2039 103.79 92.4238 105.056 93.3157C106.321 94.2076 107.891 94.7232 109.528 94.7847H140.257C138.62 94.7242 137.05 94.209 135.784 93.3169C134.518 92.4249 133.626 91.2043 133.241 89.8396Z" fill="#263238"/>
<path opacity="0.7" d="M133.241 89.8396L125.221 57.8807C124.837 56.5154 123.945 55.2944 122.679 54.4022C121.413 53.51 119.843 52.9951 118.205 52.9355H87.4824C89.1196 52.9971 90.6891 53.5126 91.9545 54.4045C93.22 55.2964 94.1129 56.5164 94.4988 57.8807L102.512 89.8396C102.897 91.2039 103.79 92.4238 105.056 93.3157C106.321 94.2076 107.891 94.7232 109.528 94.7847H140.257C138.62 94.7242 137.05 94.209 135.784 93.3169C134.518 92.4249 133.626 91.2043 133.241 89.8396Z" fill="#585FCD"/>
<path d="M75.4969 91.4361L74.709 98.9355L75.4156 98.99L76.2035 91.4906L75.4969 91.4361Z" fill="#585FCD"/>
<path d="M73.9106 102.559L73.5725 105.699L74.2761 105.755L74.6142 102.615L73.9106 102.559Z" fill="#585FCD"/>
<path d="M87.4827 52.9355H118.205C116.632 52.9606 115.124 53.477 113.965 54.3877C112.806 55.2984 112.075 56.5406 111.909 57.8807L103.939 132.137C103.772 133.477 103.04 134.72 101.879 135.63C100.719 136.541 99.2099 137.057 97.6363 137.082H78.4596C77.7209 137.094 76.9878 136.97 76.3093 136.72C75.6309 136.469 75.0227 136.097 74.5257 135.629C74.0286 135.161 73.654 134.607 73.4271 134.005C73.2001 133.402 73.126 132.765 73.2096 132.137L81.1799 57.8807C81.3467 56.5401 82.0792 55.2978 83.2397 54.3872C84.4003 53.4766 85.9091 52.9604 87.4827 52.9355Z" fill="#585FCD"/>
<path d="M92.3862 132.137C92.3026 132.766 92.3767 133.402 92.6037 134.005C92.8306 134.607 93.2052 135.161 93.7023 135.629C94.1994 136.097 94.8075 136.469 95.4859 136.72C96.1644 136.97 96.8975 137.094 97.6362 137.082H66.9067C66.1683 137.094 65.4354 136.97 64.7573 136.72C64.0791 136.469 63.4714 136.097 62.9749 135.629C62.4783 135.16 62.1044 134.607 61.8783 134.004C61.6522 133.402 61.5791 132.765 61.6639 132.137H92.3862Z" fill="#263238"/>
<path opacity="0.7" d="M92.3862 132.137C92.3026 132.766 92.3767 133.402 92.6037 134.005C92.8306 134.607 93.2052 135.161 93.7023 135.629C94.1994 136.097 94.8075 136.469 95.4859 136.72C96.1644 136.97 96.8975 137.094 97.6362 137.082H66.9067C66.1683 137.094 65.4354 136.97 64.7573 136.72C64.0791 136.469 63.4714 136.097 62.9749 135.629C62.4783 135.16 62.1044 134.607 61.8783 134.004C61.6522 133.402 61.5791 132.765 61.6639 132.137H92.3862Z" fill="#585FCD"/>
<g opacity="0.5">
<path opacity="0.5" d="M106.617 61.2584H85.7866C85.6262 61.2601 85.4673 61.2326 85.3202 61.1776C85.1732 61.1227 85.0415 61.0416 84.9339 60.9397C84.8263 60.8377 84.7453 60.7174 84.6962 60.5866C84.647 60.4558 84.631 60.3175 84.649 60.181C84.6866 59.8897 84.8462 59.6199 85.0983 59.4218C85.3504 59.2237 85.6778 59.1106 86.0198 59.1036H106.815C106.975 59.1019 107.134 59.1294 107.281 59.1843C107.428 59.2393 107.56 59.3204 107.667 59.4223C107.775 59.5242 107.856 59.6446 107.905 59.7754C107.954 59.9062 107.97 60.0445 107.952 60.181C107.916 60.4673 107.761 60.7331 107.516 60.9305C107.272 61.128 106.953 61.2442 106.617 61.2584Z" fill="white"/>
<path opacity="0.5" d="M105.967 67.0808H85.1721C85.0111 67.0834 84.8514 67.0565 84.7035 67.0019C84.5556 66.9474 84.4231 66.8664 84.3147 66.7643C84.2063 66.6623 84.1246 66.5417 84.0751 66.4104C84.0256 66.2792 84.0093 66.1404 84.0275 66.0034C84.065 65.7121 84.2246 65.4423 84.4767 65.2442C84.7288 65.046 85.0562 64.933 85.3982 64.926H106.193C106.354 64.9234 106.514 64.9502 106.662 65.0048C106.81 65.0594 106.942 65.1404 107.051 65.2424C107.159 65.3444 107.241 65.4651 107.29 65.5963C107.34 65.7275 107.356 65.8663 107.338 66.0034C107.3 66.2947 107.141 66.5644 106.889 66.7626C106.636 66.9607 106.309 67.0738 105.967 67.0808Z" fill="white"/>
<path opacity="0.5" d="M100.257 72.9108H84.5501C84.3897 72.9126 84.2307 72.885 84.0837 72.8301C83.9366 72.7751 83.805 72.694 83.6974 72.5921C83.5898 72.4902 83.5087 72.3698 83.4596 72.239C83.4105 72.1082 83.3944 71.97 83.4125 71.8334C83.45 71.5421 83.6096 71.2724 83.8617 71.0743C84.1138 70.8761 84.4412 70.7631 84.7832 70.756H100.477C100.638 70.7534 100.797 70.7803 100.945 70.8349C101.093 70.8894 101.226 70.9704 101.334 71.0725C101.442 71.1745 101.524 71.2951 101.574 71.4264C101.623 71.5576 101.639 71.6964 101.621 71.8334C101.584 72.1237 101.425 72.3927 101.175 72.5907C100.924 72.7887 100.598 72.9024 100.257 72.9108Z" fill="white"/>
<path opacity="0.5" d="M89.2561 78.7641H83.9355C83.7752 78.7666 83.6161 78.7398 83.4688 78.6856C83.3214 78.6314 83.1893 78.551 83.081 78.4496C82.9727 78.3483 82.8909 78.2284 82.8408 78.0979C82.7908 77.9674 82.7738 77.8293 82.7908 77.6927C82.8284 77.4014 82.988 77.1317 83.2401 76.9335C83.4922 76.7354 83.8196 76.6223 84.1616 76.6153H89.4893C89.6497 76.6136 89.8087 76.6411 89.9557 76.6961C90.1027 76.751 90.2344 76.8321 90.342 76.934C90.4496 77.036 90.5306 77.1563 90.5798 77.2871C90.6289 77.4179 90.645 77.5562 90.6269 77.6927C90.5878 77.9829 90.4275 78.2512 90.1755 78.4481C89.9236 78.645 89.5971 78.7572 89.2561 78.7641Z" fill="white"/>
<path opacity="0.5" d="M104.109 84.5612H83.2996C83.1392 84.563 82.9802 84.5354 82.8332 84.4805C82.6862 84.4255 82.5545 84.3444 82.4469 84.2425C82.3393 84.1406 82.2582 84.0202 82.2091 83.8894C82.16 83.7586 82.1439 83.6204 82.162 83.4838C82.1995 83.1925 82.3591 82.9228 82.6112 82.7246C82.8633 82.5265 83.1907 82.4134 83.5328 82.4064H104.321C104.481 82.4038 104.641 82.4307 104.789 82.4853C104.937 82.5398 105.07 82.6208 105.178 82.7228C105.286 82.8248 105.368 82.9455 105.418 83.0768C105.467 83.208 105.483 83.3468 105.465 83.4838C105.428 83.7731 105.27 84.0412 105.021 84.2391C104.772 84.437 104.448 84.5513 104.109 84.5612Z" fill="white"/>
<path opacity="0.5" d="M95.3116 90.3912H82.699C82.538 90.3938 82.3782 90.3669 82.2304 90.3124C82.0825 90.2578 81.9499 90.1768 81.8416 90.0748C81.7332 89.9728 81.6515 89.8521 81.602 89.7209C81.5524 89.5896 81.5362 89.4509 81.5543 89.3138C81.5919 89.0225 81.7515 88.7528 82.0036 88.5546C82.2556 88.3565 82.5831 88.2434 82.9251 88.2364H95.5306C95.6912 88.2348 95.8505 88.2623 95.9978 88.3172C96.1451 88.3721 96.2772 88.4531 96.3854 88.5549C96.4935 88.6567 96.5752 88.777 96.6252 88.9078C96.6752 89.0386 96.6922 89.1769 96.6753 89.3138C96.6379 89.6041 96.4793 89.873 96.2287 90.071C95.9781 90.269 95.6523 90.3828 95.3116 90.3912Z" fill="white"/>
<path opacity="0.5" d="M102.872 96.2135H82.0769C81.9165 96.2152 81.7575 96.1877 81.6105 96.1327C81.4635 96.0778 81.3318 95.9966 81.2242 95.8947C81.1166 95.7928 81.0356 95.6725 80.9864 95.5417C80.9373 95.4109 80.9213 95.2726 80.9393 95.1361C80.9769 94.8448 81.1365 94.575 81.3886 94.3769C81.6406 94.1787 81.9681 94.0657 82.3101 94.0587H103.084C103.244 94.057 103.404 94.0846 103.551 94.1395C103.698 94.1944 103.83 94.2754 103.938 94.3772C104.047 94.479 104.128 94.5992 104.178 94.73C104.228 94.8608 104.245 94.9992 104.228 95.1361C104.191 95.4253 104.034 95.6935 103.784 95.8913C103.535 96.0892 103.211 96.2036 102.872 96.2135Z" fill="white"/>
<path opacity="0.5" d="M97.1557 102.042H81.4624C81.3014 102.044 81.1417 102.017 80.9938 101.963C80.8459 101.908 80.7134 101.827 80.605 101.725C80.4966 101.623 80.4149 101.503 80.3654 101.371C80.3158 101.24 80.2996 101.101 80.3177 100.964C80.3553 100.673 80.5149 100.403 80.767 100.205C81.0191 100.007 81.3465 99.8939 81.6885 99.8869H97.3818C97.5428 99.8843 97.7026 99.9112 97.8504 99.9657C97.9983 100.02 98.1309 100.101 98.2393 100.203C98.3476 100.305 98.4293 100.426 98.4789 100.557C98.5284 100.688 98.5446 100.827 98.5265 100.964C98.489 101.256 98.3293 101.525 98.0773 101.723C97.8252 101.922 97.4977 102.035 97.1557 102.042Z" fill="white"/>
<path opacity="0.5" d="M86.1679 107.872H80.8403C80.6796 107.873 80.5204 107.846 80.373 107.791C80.2257 107.736 80.0936 107.655 79.9855 107.553C79.8773 107.451 79.7956 107.331 79.7456 107.2C79.6957 107.07 79.6786 106.931 79.6956 106.794C79.7333 106.502 79.8939 106.232 80.1475 106.033C80.401 105.835 80.7302 105.723 81.0734 105.717H86.394C86.555 105.714 86.7148 105.741 86.8626 105.796C87.0105 105.85 87.1431 105.931 87.2514 106.033C87.3598 106.135 87.4415 106.256 87.491 106.387C87.5406 106.519 87.5568 106.657 87.5387 106.794C87.5011 107.086 87.3415 107.355 87.0894 107.554C86.8374 107.752 86.5099 107.865 86.1679 107.872Z" fill="white"/>
<path opacity="0.5" d="M101.014 113.694H80.2258C80.0649 113.697 79.9051 113.67 79.7572 113.615C79.6093 113.561 79.4768 113.48 79.3684 113.378C79.26 113.276 79.1783 113.155 79.1288 113.024C79.0793 112.892 79.063 112.754 79.0812 112.617C79.1187 112.325 79.2783 112.056 79.5304 111.857C79.7825 111.659 80.1099 111.546 80.452 111.539H101.247C101.407 111.537 101.566 111.565 101.713 111.62C101.86 111.675 101.992 111.756 102.099 111.858C102.207 111.96 102.288 112.08 102.337 112.211C102.386 112.342 102.402 112.48 102.384 112.617C102.347 112.908 102.187 113.178 101.935 113.376C101.683 113.574 101.356 113.687 101.014 113.694Z" fill="white"/>
<path opacity="0.5" d="M92.2098 119.522H79.6043C79.4433 119.525 79.2835 119.498 79.1356 119.443C78.9878 119.389 78.8552 119.308 78.7468 119.206C78.6385 119.104 78.5568 118.983 78.5072 118.852C78.4577 118.721 78.4415 118.582 78.4596 118.445C78.4971 118.153 78.6568 117.884 78.9088 117.686C79.1609 117.487 79.4884 117.374 79.8304 117.367H92.4359C92.5968 117.365 92.7566 117.392 92.9045 117.446C93.0524 117.501 93.1849 117.582 93.2933 117.684C93.4017 117.786 93.4834 117.906 93.5329 118.038C93.5824 118.169 93.5987 118.308 93.5805 118.445C93.543 118.736 93.3834 119.006 93.1313 119.204C92.8792 119.402 92.5518 119.515 92.2098 119.522Z" fill="white"/>
<path opacity="0.5" d="M99.7771 125.37H78.9893C78.8283 125.372 78.6685 125.345 78.5206 125.291C78.3728 125.236 78.2402 125.155 78.1318 125.053C78.0235 124.951 77.9418 124.83 77.8922 124.699C77.8427 124.568 77.8265 124.429 77.8446 124.292C77.8837 124.002 78.044 123.734 78.296 123.537C78.5479 123.34 78.8744 123.228 79.2154 123.221H100.01C100.17 123.219 100.328 123.247 100.475 123.301C100.621 123.356 100.753 123.436 100.86 123.537C100.968 123.639 101.049 123.758 101.098 123.888C101.148 124.018 101.165 124.156 101.148 124.292C101.11 124.583 100.951 124.853 100.699 125.051C100.447 125.249 100.119 125.363 99.7771 125.37Z" fill="white"/>
</g>
<path d="M139.282 78.5331L134.767 75.1738L132.647 81.3598C132.647 81.3598 137.233 83.4904 138.816 81.5353L139.282 78.5331Z" fill="#FFC3BD"/>
<path d="M129.856 74.9316L128.387 80.1189L132.655 81.3597L134.767 75.1738L129.856 74.9316Z" fill="#FFC3BD"/>
<ellipse cx="13.9286" cy="13.1569" rx="13.9286" ry="13.1569" transform="matrix(0.973256 -0.235727 0.354789 0.93699 86.5386 13.1758)" fill="white"/>
<path d="M128.215 29.0164L118.011 29.1903L118.08 29.1734C116.183 31.1668 113.665 32.6142 110.803 33.3558C109.102 33.7755 107.321 33.9612 105.52 33.9067C102.336 33.764 99.1993 32.814 96.4808 31.169C93.7623 29.524 91.5756 27.2528 90.1791 24.6239C89.1123 22.6382 88.534 20.4987 88.4851 18.357C88.4362 16.2154 88.918 14.124 89.8963 12.2312C90.4038 11.2183 91.0426 10.2679 91.8005 9.398C92.1952 8.98861 92.5863 8.56947 93.0172 8.19386L93.6826 7.64977L94.0127 7.37837L94.3789 7.14076C96.2429 5.86148 98.4291 4.98167 100.784 4.56307C103.938 3.99801 107.277 4.29046 110.379 5.40355C113.482 6.51665 116.21 8.40058 118.218 10.8179C119.338 12.1711 120.222 13.659 120.835 15.2261C121.838 17.8346 122.028 20.5879 121.386 23.1821L121.356 23.1042C125.596 26.763 127.734 28.6117 128.21 29.0177C127.72 28.6045 125.548 26.8065 121.234 23.2136L121.219 23.1746L121.204 23.1357C121.801 20.576 121.586 17.8692 120.58 15.3091C119.97 13.7688 119.093 12.3078 117.982 10.9815C116.005 8.61595 113.327 6.77342 110.284 5.68464C107.24 4.59585 103.967 4.30919 100.873 4.86056C98.5656 5.27338 96.4236 6.13704 94.5965 7.3912L94.2392 7.62134L93.9145 7.89144L93.2615 8.42189C92.8198 8.8001 92.4572 9.20171 92.066 9.60494C91.3209 10.4533 90.691 11.3801 90.1879 12.368C89.2275 14.2262 88.7541 16.2791 88.8013 18.3815C88.8485 20.484 89.4151 22.5845 90.4611 24.5343C92.3578 28.1113 95.7191 30.9742 99.8105 32.4974C101.642 33.1858 103.576 33.5824 105.518 33.668C107.29 33.7303 109.043 33.5549 110.719 33.1476C113.552 32.4311 116.052 31.0177 117.945 29.0627L117.977 29.0549L118.036 29.0406L128.215 29.0164Z" fill="#263238"/>
<path d="M101.639 13.2084L104.738 20.1347C104.86 20.4078 105.087 20.6382 105.374 20.7826C105.661 20.9269 105.99 20.9751 106.299 20.9182C106.622 20.8569 106.899 20.6843 107.071 20.4359C107.243 20.1876 107.299 19.8823 107.225 19.5828L105.433 12.3207C105.401 12.1909 105.338 12.0668 105.25 11.9567C105.162 11.8466 105.05 11.7529 104.922 11.682C104.794 11.611 104.653 11.5644 104.507 11.5452C104.362 11.526 104.215 11.5346 104.078 11.5705L102.22 12.0258C102.091 12.0613 101.973 12.1205 101.873 12.1999C101.774 12.2792 101.694 12.3771 101.64 12.4875C101.586 12.598 101.558 12.7188 101.558 12.8426C101.558 12.9665 101.585 13.0909 101.639 13.2084Z" fill="#585FCD"/>
<path d="M109.645 24.2575C109.649 24.6132 109.534 24.9544 109.315 25.2381C109.096 25.5217 108.782 25.735 108.414 25.8511C108.045 25.9672 107.639 25.9807 107.245 25.8901C106.852 25.7995 106.489 25.6087 106.203 25.342C105.916 25.0752 105.72 24.7444 105.637 24.3913C105.555 24.0382 105.59 23.6787 105.739 23.3583C105.889 23.0379 106.145 22.7709 106.475 22.591C106.805 22.4111 107.196 22.3265 107.596 22.3478C107.862 22.3619 108.126 22.4226 108.374 22.5262C108.621 22.6299 108.846 22.7746 109.036 22.952C109.227 23.1293 109.378 23.3359 109.483 23.56C109.587 23.784 109.642 24.021 109.645 24.2575Z" fill="#585FCD"/>
</svg>
