<svg width="16" height="16" viewBox="0 0 16 16" fill="none" xmlns="http://www.w3.org/2000/svg">
<path d="M15.4649 5.039L10.9606 0.535407C10.8503 0.425108 10.7194 0.337613 10.5753 0.277919C10.4312 0.218225 10.2768 0.1875 10.1208 0.1875C9.96485 0.1875 9.81041 0.218225 9.66632 0.277919C9.52223 0.337613 9.39131 0.425108 9.28104 0.535407L5.30068 4.52838C4.50951 4.28048 2.70303 3.98138 0.817872 5.50361C0.687934 5.60809 0.581455 5.73877 0.505367 5.88713C0.429279 6.0355 0.385287 6.19822 0.376255 6.36471C0.367224 6.5312 0.393354 6.69773 0.452946 6.85345C0.512539 7.00918 0.604257 7.1506 0.72213 7.26853L4.30838 10.8533L1.14221 14.0172C1.0308 14.1287 0.968206 14.2798 0.968206 14.4373C0.968206 14.5949 1.0308 14.746 1.14221 14.8574C1.25362 14.9688 1.40473 15.0314 1.56229 15.0314C1.71985 15.0314 1.87095 14.9688 1.98236 14.8574L5.14631 11.6912L8.73033 15.2753C8.84051 15.3859 8.97143 15.4737 9.1156 15.5337C9.25976 15.5937 9.41434 15.6247 9.57049 15.6248H9.65436C9.82363 15.6131 9.98841 15.5651 10.1375 15.484C10.2865 15.4029 10.4164 15.2907 10.5183 15.155C11.9759 13.2179 11.8356 11.643 11.4972 10.7019L15.4657 6.71857C15.5759 6.60825 15.6634 6.47729 15.723 6.33317C15.7826 6.18905 15.8133 6.0346 15.8132 5.87863C15.8132 5.72266 15.7824 5.56824 15.7226 5.42417C15.6628 5.28011 15.5753 5.14922 15.4649 5.039ZM14.6248 5.87916L10.3743 10.1438C10.2865 10.2319 10.2286 10.3453 10.2088 10.4681C10.1889 10.5909 10.2081 10.7168 10.2637 10.8281C10.9658 12.233 10.1301 13.6922 9.57049 14.4366L1.56229 6.42763C2.45885 5.70474 3.31682 5.514 3.97291 5.514C4.38922 5.50832 4.8021 5.58998 5.1849 5.75373C5.29658 5.80962 5.42304 5.82887 5.5463 5.80875C5.66955 5.78863 5.78332 5.73016 5.87143 5.64166L10.1212 1.37482L14.6248 5.87841V5.87916Z" fill="#585FCD"/>
</svg>
