<svg width="20" height="20" viewBox="0 0 20 20" fill="none" xmlns="http://www.w3.org/2000/svg">
<path opacity="0.4" d="M14.167 15.3587H10.8337L7.12532 17.8254C6.57532 18.1921 5.83366 17.8004 5.83366 17.1337V15.3587C3.33366 15.3587 1.66699 13.6921 1.66699 11.1921V6.19206C1.66699 3.69206 3.33366 2.02539 5.83366 2.02539H14.167C16.667 2.02539 18.3337 3.69206 18.3337 6.19206V11.1921C18.3337 13.6921 16.667 15.3587 14.167 15.3587Z" fill="#01AF4F"/>
<path d="M9.99952 10.0918C9.65786 10.0918 9.37452 9.80846 9.37452 9.4668V9.29183C9.37452 8.32516 10.0828 7.85015 10.3495 7.66682C10.6578 7.45849 10.7578 7.31683 10.7578 7.10016C10.7578 6.68349 10.4162 6.3418 9.99952 6.3418C9.58286 6.3418 9.24121 6.68349 9.24121 7.10016C9.24121 7.44183 8.95788 7.72516 8.61621 7.72516C8.27454 7.72516 7.99121 7.44183 7.99121 7.10016C7.99121 5.99183 8.89119 5.0918 9.99952 5.0918C11.1079 5.0918 12.0078 5.99183 12.0078 7.10016C12.0078 8.05016 11.3079 8.52514 11.0495 8.70014C10.7245 8.91681 10.6245 9.0585 10.6245 9.29183V9.4668C10.6245 9.8168 10.3412 10.0918 9.99952 10.0918Z" fill="#01AF4F"/>
<path d="M10 12.167C9.65 12.167 9.375 11.8837 9.375 11.542C9.375 11.2003 9.65833 10.917 10 10.917C10.3417 10.917 10.625 11.2003 10.625 11.542C10.625 11.8837 10.35 12.167 10 12.167Z" fill="#01AF4F"/>
</svg>
