<svg width="20" height="14" viewBox="0 0 20 14" fill="none" xmlns="http://www.w3.org/2000/svg">
<path d="M9.15977 9.33745C9.99743 8.77979 10.6334 7.96736 10.9736 7.0203C11.3138 6.07325 11.3402 5.04185 11.0489 4.07862C10.7576 3.1154 10.1641 2.27149 9.35604 1.67169C8.54802 1.07189 7.56842 0.748047 6.56211 0.748047C5.5558 0.748047 4.57621 1.07189 3.76818 1.67169C2.96016 2.27149 2.36661 3.1154 2.07531 4.07862C1.784 5.04185 1.81041 6.07325 2.15063 7.0203C2.49084 7.96736 3.1268 8.77979 3.96446 9.33745C2.44921 9.89592 1.15516 10.9293 0.275393 12.2835C0.229155 12.3523 0.197038 12.4295 0.180909 12.5107C0.16478 12.592 0.164961 12.6756 0.181441 12.7568C0.19792 12.838 0.23037 12.915 0.276904 12.9836C0.323438 13.0521 0.383128 13.1107 0.452504 13.1559C0.52188 13.2012 0.599559 13.2322 0.681024 13.2472C0.76249 13.2621 0.846117 13.2607 0.927046 13.2431C1.00797 13.2255 1.08459 13.1919 1.15244 13.1444C1.22029 13.0969 1.27802 13.0364 1.32227 12.9664C1.88976 12.0935 2.6663 11.3763 3.58136 10.8798C4.49642 10.3833 5.52102 10.1232 6.56211 10.1232C7.6032 10.1232 8.6278 10.3833 9.54286 10.8798C10.4579 11.3763 11.2345 12.0935 11.802 12.9664C11.8936 13.1026 12.0352 13.1973 12.1962 13.23C12.3571 13.2626 12.5244 13.2307 12.662 13.1409C12.7995 13.0512 12.8962 12.911 12.9312 12.7506C12.9661 12.5901 12.9366 12.4224 12.8488 12.2835C11.9691 10.9293 10.675 9.89592 9.15977 9.33745ZM3.12461 5.43745C3.12461 4.75758 3.32622 4.09297 3.70393 3.52768C4.08165 2.96238 4.61852 2.52179 5.24664 2.26161C5.87476 2.00144 6.56593 1.93336 7.23273 2.066C7.89954 2.19864 8.51205 2.52603 8.99279 3.00677C9.47353 3.48751 9.80092 4.10002 9.93356 4.76683C10.0662 5.43364 9.99812 6.1248 9.73795 6.75292C9.47777 7.38104 9.03718 7.91791 8.47188 8.29563C7.90659 8.67334 7.24198 8.87495 6.56211 8.87495C5.65075 8.87391 4.77701 8.51142 4.13257 7.86699C3.48814 7.22255 3.12565 6.34881 3.12461 5.43745ZM19.5418 13.1484C19.403 13.2389 19.2339 13.2706 19.0717 13.2365C18.9095 13.2023 18.7675 13.1052 18.677 12.9664C18.1101 12.093 17.3337 11.3755 16.4185 10.8791C15.5032 10.3828 14.4783 10.1236 13.4371 10.1249C13.2714 10.1249 13.1124 10.0591 12.9952 9.94189C12.878 9.82468 12.8121 9.66571 12.8121 9.49995C12.8121 9.33419 12.878 9.17522 12.9952 9.05801C13.1124 8.9408 13.2714 8.87495 13.4371 8.87495C13.9433 8.87447 14.4432 8.76219 14.901 8.54613C15.3588 8.33007 15.7632 8.01557 16.0854 7.62508C16.4076 7.2346 16.6395 6.77779 16.7647 6.28727C16.8898 5.79676 16.9051 5.28466 16.8094 4.78756C16.7137 4.29047 16.5094 3.82064 16.211 3.41166C15.9127 3.00268 15.5277 2.66464 15.0836 2.42169C14.6395 2.17874 14.1472 2.03688 13.6419 2.00625C13.1366 1.97562 12.6308 2.05696 12.1606 2.24448C12.0839 2.27762 12.0014 2.29506 11.9178 2.29577C11.8343 2.29647 11.7515 2.28043 11.6743 2.24859C11.5971 2.21675 11.527 2.16975 11.4683 2.11038C11.4095 2.05101 11.3633 1.98046 11.3323 1.90291C11.3012 1.82536 11.2861 1.74238 11.2877 1.65887C11.2893 1.57536 11.3076 1.49302 11.3415 1.41671C11.3755 1.3404 11.4244 1.27167 11.4854 1.21458C11.5463 1.15749 11.6181 1.1132 11.6965 1.08432C12.7726 0.655145 13.9696 0.639701 15.0564 1.04097C16.1433 1.44224 17.043 2.23179 17.5821 3.25731C18.1212 4.28282 18.2614 5.47164 17.9756 6.59442C17.6899 7.71719 16.9985 8.69438 16.0348 9.33745C17.55 9.89592 18.8441 10.9293 19.7238 12.2835C19.8144 12.4224 19.846 12.5915 19.8119 12.7537C19.7778 12.9158 19.6806 13.0578 19.5418 13.1484Z" fill="#818181"/>
</svg>
