<svg width="22" height="22" viewBox="0 0 22 22" fill="none" xmlns="http://www.w3.org/2000/svg">
<path d="M19.8194 17.7626H20.3751L20.3751 17.7626C20.5756 17.7628 20.7618 17.8631 20.895 18.0301L20.8951 18.0302C21.0277 18.1968 21.0998 18.4188 21.1 18.6468V18.6469V19.5186V19.5187C21.0997 19.9314 20.9689 20.3306 20.7321 20.6278C20.4948 20.9256 20.1674 21.0995 19.8197 21.0999H19.8196H2.18037H2.18026C1.83258 21.0995 1.50522 20.9256 1.26792 20.6278C1.03106 20.3306 0.900293 19.9314 0.9 19.5187L0.9 19.5186L0.9 18.6469V18.6468C0.900153 18.4188 0.972334 18.1968 1.10493 18.0302L1.105 18.0301C1.23822 17.8631 1.42437 17.7628 1.62489 17.7626H1.625H2.18071C2.16051 17.6622 2.15021 17.5592 2.15 17.4557L2.15 17.4555L2.15 5.32809V5.328C2.1503 4.99208 2.25665 4.66665 2.45009 4.4237L2.45014 4.42364C2.64418 4.1803 2.9128 4.03712 3.19922 4.03672L3.19936 4.03672L6.47864 4.03672H6.49545L6.51134 4.04222L6.86555 4.16477L6.93285 4.18805V4.25927V4.92106V5.02106H6.83285H3.19938C3.09543 5.02134 2.9752 5.13647 2.97493 5.32814C2.97493 5.32817 2.97493 5.3282 2.97493 5.32823V17.4554C2.97493 17.4555 2.97493 17.4555 2.97493 17.4555C2.9752 17.6471 3.09536 17.7623 3.19929 17.7626C3.19935 17.7626 3.19942 17.7626 3.19948 17.7626M19.8194 17.7626L9.43749 18.2548C9.43749 18.0382 9.29756 17.8626 9.12499 17.8626H3.19929L3.19948 17.7626M19.8194 17.7626C19.8396 17.6622 19.8499 17.5592 19.8501 17.4558V17.4556V5.3281V5.32802C19.8498 4.99211 19.7434 4.66665 19.55 4.42371L19.5499 4.42366C19.3559 4.18032 19.0873 4.03713 18.8009 4.03674H18.8007H16.2316H16.0858L16.1384 4.17278C16.2262 4.40021 16.257 4.65718 16.2257 4.90874L16.2118 5.02106H16.325H18.8006C18.9046 5.02134 19.0248 5.13651 19.025 5.32823V17.4554M19.8194 17.7626L19.025 17.4554M3.19948 17.7626L9.12499 17.7626C9.37274 17.7626 9.53744 18.0053 9.53749 18.2546M3.19948 17.7626L9.53749 18.2546M9.53749 18.2546C9.53773 18.4381 9.65259 18.5466 9.74999 18.5469C9.75006 18.5469 9.75013 18.5469 9.75019 18.5469M9.53749 18.2546L9.74999 18.6469L9.75019 18.5469M9.75019 18.5469H12.2498M9.75019 18.5469H12.2498M12.2498 18.5469L12.25 18.5469L12.2498 18.5469ZM18.8007 17.7626L18.8005 17.7626L12.875 17.7626C12.6272 17.7626 12.4625 18.0053 12.4625 18.2546L19.125 17.4556C19.1248 17.6802 18.9797 17.8623 18.8007 17.8626V17.7626ZM18.8007 17.7626C18.9046 17.7623 19.0248 17.6471 19.025 17.4554M18.8007 17.7626L19.025 17.4554M9.75002 19.5313H9.74984C9.52944 19.5309 9.3175 19.4446 9.143 19.2896C8.98636 19.1505 8.86636 18.9619 8.79353 18.7469H1.72506L1.72506 19.5185M9.75002 19.5313L1.78787 20.0113C1.6838 19.8805 1.6252 19.7033 1.62506 19.5186H1.72506M9.75002 19.5313H12.25L12.2502 19.5313C12.4706 19.5309 12.6825 19.4446 12.857 19.2896C13.0137 19.1505 13.1337 18.9619 13.2065 18.7469H20.275L20.2751 19.5185C20.275 19.6831 20.2226 19.8377 20.134 19.949C20.0459 20.0594 19.9319 20.1154 19.8196 20.1156H2.18056C2.06819 20.1154 1.95428 20.0594 1.86612 19.949L9.75002 19.5313ZM1.72506 19.5185L1.72506 19.5186M1.72506 19.5185C1.72506 19.5186 1.72506 19.5186 1.72506 19.5186M1.72506 19.5185L1.86604 19.9489C1.77757 19.8377 1.7252 19.6831 1.72506 19.5186" fill="#818181" stroke="#818181" stroke-width="0.2"/>
<path d="M17.6858 6.29409C17.8764 6.29427 18.0309 6.48824 18.0311 6.7274V16.0568C18.0309 16.296 17.8764 16.49 17.6858 16.4901H4.31403C4.12346 16.49 3.96888 16.296 3.96874 16.0568V6.7274C3.96888 6.48825 4.12346 6.29427 4.31403 6.29409H6.83284V5.50977H4.31403C4.05677 5.51012 3.81013 5.63862 3.62835 5.86692C3.44643 6.09503 3.34403 6.40456 3.34375 6.72739V16.0568C3.34403 16.3797 3.44643 16.6892 3.62835 16.9173C3.81013 17.1456 4.05678 17.2741 4.31403 17.2744H17.6858C17.943 17.2741 18.1897 17.1456 18.3715 16.9173C18.5534 16.6892 18.6558 16.3797 18.6561 16.0568V6.72739C18.6558 6.40456 18.5534 6.09504 18.3715 5.86692C18.1897 5.63862 17.943 5.51012 17.6858 5.50977H16.6664C16.7256 5.76905 16.7122 6.04584 16.6283 6.29409H17.6858Z" fill="#818181"/>
<path d="M16.2301 6.5469H16.2959L16.2753 6.50676C16.5817 6.2146 16.6239 5.73795 16.4465 5.39314C16.4465 5.39311 16.4465 5.39307 16.4464 5.39303L16.1771 4.86938C16.2073 4.61757 16.1597 4.35292 16.0298 4.1299V2.94712C16.0298 2.9456 16.0298 2.94411 16.0298 2.94264C16.0298 2.94117 16.0298 2.93969 16.0298 2.93819C16.0298 2.91635 16.0284 2.89705 16.0266 2.88116C16.0201 2.76096 15.99 2.6396 15.934 2.52744C15.9067 2.46978 15.8731 2.41461 15.8332 2.36338L15.8333 2.36336L15.8322 2.36205C15.7465 2.24985 15.6287 2.15275 15.4815 2.0963L15.4815 2.09617L15.4702 2.09216L11.122 0.543809L11.1214 0.543576C10.9575 0.485475 10.7805 0.485475 10.6166 0.543576L10.616 0.543805L6.26746 2.09214C6.26745 2.09214 6.26743 2.09215 6.26742 2.09215C5.87993 2.2301 5.70698 2.61789 5.70801 2.94345C5.70905 3.26902 5.88435 3.65619 6.27405 3.79097C6.27407 3.79098 6.27409 3.79099 6.27412 3.791L6.93148 4.01839L6.93136 6.40648C6.93136 6.40655 6.93136 6.40663 6.93136 6.4067C6.93136 6.40676 6.93136 6.40681 6.93136 6.40686C6.93122 6.65411 6.99006 6.90231 7.10798 7.12004L16.2301 6.5469ZM16.2301 6.5469C16.2278 6.54879 16.2255 6.55066 16.2232 6.55253C16.0304 6.70855 15.7812 6.76492 15.5427 6.70034C15.4549 6.67659 15.3751 6.63843 15.3043 6.58947M16.2301 6.5469L15.3043 6.58947M14.7789 6.72107C14.7529 6.8569 14.7084 6.98904 14.6455 7.11211L14.6454 7.11236C14.5372 7.32379 14.3735 7.50933 14.1608 7.63066L14.093 7.66931C13.1269 8.24527 12.064 8.55165 10.9807 8.55887L10.9774 8.5589C9.54393 8.55888 8.21495 7.91972 7.67913 7.66202L7.66377 7.65463L7.66205 7.6538L7.66205 7.6538L7.63862 7.64242L7.63539 7.64085L7.6354 7.64084C7.40459 7.52672 7.22613 7.33827 7.10809 7.12024L14.7789 6.72107ZM14.7789 6.72107C14.8964 6.73537 15.0164 6.7217 15.1302 6.67984C15.1932 6.65664 15.2513 6.62603 15.3043 6.58947M14.7789 6.72107L15.3043 6.58947M8.55628 4.58052L10.7869 5.3521L10.8664 5.37957H10.8885C11.0247 5.40645 11.1657 5.39512 11.2973 5.34591L8.55628 4.58052ZM8.55628 4.58052V6.13289C9.13661 6.40317 10.0395 6.77419 10.9759 6.77455C11.7311 6.77023 12.4817 6.56914 13.1813 6.17825L13.1813 4.64288L11.2979 5.34569L8.55628 4.58052ZM16.0216 3.02896C16.0217 3.02806 16.022 3.02683 16.0222 3.02549L16.0216 3.02872L16.0216 3.02896ZM16.0216 3.02896C16.0214 3.03011 16.0213 3.03073 16.0213 3.0304L16.0214 3.02993L16.0216 3.02896ZM13.1819 6.45265C13.1815 6.44444 13.1813 6.436 13.1814 6.42736H13.554H13.5577H13.6224L13.6242 6.4301L13.5611 6.43332L13.5578 6.43349L13.1819 6.45265ZM13.6295 6.42983L13.6281 6.42736H13.6778L13.6295 6.42983ZM10.8688 2.33059L12.6376 2.96037L11.0239 3.5625L9.19024 2.9281L10.8688 2.33059ZM16.0251 4.3493L16.0252 4.3488L16.0251 4.3493Z" fill="#818181" stroke="white"/>
<path d="M7.09374 10.216C7.0936 10.008 7.02761 9.80857 6.91057 9.66151C6.79338 9.51463 6.63448 9.43182 6.46874 9.43164H5.84375C5.67801 9.43182 5.51911 9.51463 5.40192 9.66151C5.28488 9.80857 5.21889 10.008 5.21875 10.216V11.0003C5.21889 11.2083 5.28488 11.4077 5.40192 11.5547C5.51911 11.7016 5.67801 11.7844 5.84375 11.7846H6.46874C6.63448 11.7844 6.79338 11.7016 6.91057 11.5547C7.02761 11.4077 7.0936 11.2083 7.09374 11.0003V10.216ZM5.84374 11.0003V10.216H6.46874L6.46916 11.0003H5.84374Z" fill="#818181"/>
<path d="M6.46874 12.5684H5.84375C5.67801 12.5685 5.51911 12.6513 5.40192 12.7982C5.28488 12.9453 5.21889 13.1447 5.21875 13.3527V14.137C5.21889 14.345 5.28488 14.5444 5.40192 14.6915C5.51911 14.8383 5.67801 14.9212 5.84375 14.9213H6.46874C6.63448 14.9212 6.79338 14.8383 6.91057 14.6915C7.02761 14.5444 7.0936 14.345 7.09374 14.137V13.3527C7.0936 13.1447 7.02761 12.9453 6.91057 12.7982C6.79338 12.6513 6.63448 12.5685 6.46874 12.5684ZM5.84375 14.137V13.3527H6.46874L6.46916 14.137H5.84375Z" fill="#818181"/>
<path d="M8.96875 10.2148C8.79618 10.2148 8.65625 10.3904 8.65625 10.607C8.65625 10.8236 8.79618 10.9992 8.96875 10.9992H16.4687C16.6413 10.9992 16.7812 10.8236 16.7812 10.607C16.7812 10.3904 16.6413 10.2148 16.4687 10.2148H8.96875Z" fill="#818181"/>
<path d="M16.4687 14.1378C16.6413 14.1378 16.7812 13.9622 16.7812 13.7457C16.7812 13.5291 16.6413 13.3535 16.4687 13.3535H8.96875C8.79618 13.3535 8.65625 13.5291 8.65625 13.7457C8.65625 13.9622 8.79618 14.1378 8.96875 14.1378H16.4687Z" fill="#818181"/>
</svg>
