<svg width="22" height="22" viewBox="0 0 22 22" fill="none" xmlns="http://www.w3.org/2000/svg">
<path d="M12.8659 20.5158C12.8617 20.5158 12.8595 20.5179 12.8574 20.52C12.8553 20.5221 12.8531 20.5242 12.8489 20.5242M12.8659 20.5158L6.20365 20.4407C7.82445 20.6327 10.0509 20.8998 10.1447 20.9165C10.4518 20.9666 10.7418 21 11.0148 21C11.6887 21 12.2944 20.8414 12.8489 20.5242M12.8659 20.5158C12.9171 20.4908 18.1208 17.611 20.39 16.1585L12.8659 20.5158ZM12.8489 20.5242L12.8659 20.554L12.8979 20.6099L12.8957 20.6126C12.893 20.6141 12.8903 20.6157 12.8876 20.6172M12.8489 20.5242V20.6242C12.8582 20.6242 12.8681 20.623 12.8781 20.6203C12.8814 20.6194 12.8846 20.6183 12.8876 20.6172M12.8876 20.6172C12.3203 20.9393 11.701 21.1 11.0148 21.1C10.7341 21.1 10.4381 21.0657 10.1286 21.0152L10.1271 21.015C10.0372 20.9989 7.81604 20.7324 6.19189 20.54L6.19159 20.54L4.88642 20.3813M12.8876 20.6172C12.8938 20.6149 12.8995 20.6121 12.9046 20.6091C12.9067 20.6078 12.9088 20.6065 12.9106 20.6053C13.001 20.5588 18.1799 17.6919 20.4439 16.2427C20.7832 16.0272 21.0215 15.6687 21.0858 15.273L21.0859 15.273L21.0862 15.2702C21.1409 14.86 21.0316 14.4564 20.7745 14.1419L20.6157 13.9478L20.6136 13.9771C20.1997 13.614 19.6125 13.5086 19.089 13.7292C19.0889 13.7292 19.0887 13.7293 19.0886 13.7293L14.0323 15.8068C14.032 15.8069 14.0318 15.807 14.0315 15.8071C13.7649 15.912 13.6489 16.2055 13.7544 16.4636C13.8622 16.7274 14.1703 16.8381 14.4221 16.7354L14.4223 16.7354L19.4896 14.6569L19.4896 14.6569L19.4912 14.6562C19.6604 14.5834 19.8615 14.6344 19.9892 14.7789C20.063 14.8718 20.0911 14.9844 20.0778 15.1004C20.0563 15.2157 19.9945 15.315 19.8922 15.3819C17.6858 16.7906 12.6646 19.5767 12.4274 19.7011L12.4144 19.7079L12.411 19.7112C12.4059 19.7139 12.3985 19.7181 12.3905 19.7243C11.812 20.0648 11.1486 20.155 10.3072 20.0083L10.3061 20.0081C10.2719 20.0026 9.91561 19.9602 8.87789 19.8367C8.27665 19.7651 7.44665 19.6664 6.31799 19.5318C6.31796 19.5317 6.31792 19.5317 6.31788 19.5317L4.9729 19.3672V14.1315C5.15603 14.1193 5.31577 14.1133 5.39328 14.1133H5.44446V14.1135L5.45056 14.1131C7.34638 13.9972 9.15931 14.353 11.0891 14.7374C11.0891 14.7374 11.0892 14.7374 11.0892 14.7374L11.8311 14.8876L11.8311 14.8876L11.8323 14.8878C12.05 14.9291 12.2031 15.1136 12.2031 15.3322C12.2031 15.3405 12.203 15.3443 12.2025 15.3491C12.202 15.3539 12.2009 15.3615 12.1976 15.3742L12.1967 15.3739L12.1952 15.3877C12.1819 15.5043 12.116 15.5925 12.0602 15.6552C11.9775 15.7349 11.859 15.7831 11.7315 15.7831H7.87569C7.59083 15.7831 7.36622 16.0108 7.36622 16.2837C7.36622 16.5677 7.6021 16.7844 7.87569 16.7844H11.7401C12.1318 16.7844 12.5159 16.6331 12.7916 16.3546C13.0285 16.1226 13.1758 15.8267 13.2127 15.5194L13.2129 15.5188C13.2211 15.4624 13.2305 15.3979 13.2305 15.3321C13.2305 14.6399 12.7258 14.0407 12.032 13.9068L12.013 14.0049M4.88642 20.3813C4.90015 20.3597 4.91221 20.3367 4.92239 20.3125L4.83022 20.2738L4.81815 20.373L4.88642 20.3813ZM4.88642 20.3813C4.79683 20.5225 4.63604 20.6075 4.4634 20.6075H1.40947C1.13588 20.6075 0.9 20.3908 0.9 20.1068V13.3539C0.9 13.0809 1.12461 12.8532 1.40947 12.8532H4.4549C4.67118 12.8532 4.83536 12.9829 4.91444 13.1508C4.99395 13.1471 5.06794 13.1426 5.13368 13.1387L5.14089 13.1382C5.22588 13.1331 5.29991 13.1286 5.35058 13.1286H5.38993C7.39701 12.9961 9.35166 13.3821 11.2331 13.7536L11.2889 13.7647C11.5375 13.8066 11.7858 13.8569 12.0323 13.9068L12.0329 13.9069L12.013 14.0049M12.013 14.0049C11.7656 13.9549 11.5182 13.9048 11.2709 13.863L11.2192 13.8528C9.33305 13.4804 7.38829 13.0963 5.39324 13.2286L12.013 14.0049ZM3.94535 19.5896H1.91886V13.8464H3.94535V19.5896Z" fill="#818181" stroke="#818181" stroke-width="0.2"/>
<mask id="path-2-outside-1_1651_8509" maskUnits="userSpaceOnUse" x="6.40625" y="0" width="13" height="13" fill="black">
<rect fill="white" x="6.40625" width="13" height="13"/>
<path d="M7.69662 6.70113C7.71368 6.70948 7.73927 6.70948 7.7734 6.71782C7.91842 6.74287 8.05491 6.76791 8.19994 6.79295C8.23407 6.8013 8.26819 6.80965 8.30231 6.80965C8.33643 7.18527 8.41321 7.55256 8.54117 7.90312C8.47292 7.95321 8.40468 7.99494 8.33643 8.04503L8.1317 8.17859C8.09758 8.20363 8.07199 8.22032 8.05492 8.23701C7.90137 8.35388 7.85019 8.55421 7.92697 8.72949C8.18288 9.25536 8.52409 9.73952 8.9421 10.1652C9.07859 10.3071 9.30038 10.3322 9.46247 10.2236L9.48806 10.207C9.59896 10.1235 9.71839 10.0484 9.82929 9.97323C9.86341 9.94819 9.90607 9.92315 9.94019 9.8981C10.2302 10.1402 10.5459 10.3405 10.8871 10.4991C10.87 10.5659 10.8615 10.641 10.8444 10.7078C10.8274 10.8163 10.8018 10.9248 10.7847 11.0333C10.7847 11.0417 10.7762 11.0584 10.7762 11.0667C10.7421 11.2587 10.8615 11.4423 11.0406 11.5091C11.3136 11.6093 11.6037 11.6844 11.8937 11.7345C12.1837 11.7846 12.4823 11.818 12.7723 11.8263H12.7809C12.9771 11.8263 13.1391 11.6928 13.1818 11.5091C13.1818 11.5008 13.1903 11.4841 13.1903 11.4757C13.2074 11.3672 13.233 11.2587 13.25 11.1502C13.2671 11.0834 13.2756 11.0166 13.2927 10.9415C13.668 10.9081 14.0434 10.833 14.4017 10.7161C14.4273 10.7495 14.4529 10.7913 14.4785 10.8247C14.5552 10.9332 14.6405 11.05 14.7088 11.1585C14.7173 11.1669 14.7344 11.1919 14.7429 11.2003C14.8623 11.3505 15.0671 11.4006 15.2462 11.3255C15.7922 11.0751 16.2869 10.7495 16.722 10.3405C16.867 10.207 16.8926 9.99829 16.7902 9.8397C16.7732 9.81466 16.7561 9.78962 16.7391 9.75623L16.6026 9.56424C16.5514 9.49746 16.5087 9.42234 16.4575 9.35556C16.7049 9.07175 16.9182 8.75456 17.0803 8.42067C17.1144 8.42902 17.1485 8.43736 17.1827 8.43736C17.3277 8.4624 17.4642 8.48745 17.6092 8.52083C17.6348 8.52918 17.6604 8.52918 17.686 8.52918C17.8737 8.54588 18.0443 8.43736 18.1125 8.26207C18.2149 7.98661 18.2917 7.70282 18.3514 7.41067C18.4111 7.11853 18.4367 6.82638 18.4452 6.5342C18.4538 6.34222 18.3173 6.17527 18.1296 6.13353C18.1211 6.13353 18.104 6.12519 18.0955 6.12519L17.8993 6.0918C17.7798 6.06676 17.6604 6.05006 17.541 6.02502C17.5069 5.65774 17.4301 5.29882 17.3107 4.94822C17.4642 4.8397 17.6263 4.73953 17.7884 4.63102C17.959 4.52251 18.0187 4.30548 17.9334 4.12183C17.6775 3.58761 17.3363 3.09513 16.9183 2.66943C16.7818 2.52752 16.5514 2.50248 16.3894 2.61935C16.2956 2.68612 16.1932 2.7529 16.0993 2.81133C16.0396 2.85307 15.9714 2.8948 15.9117 2.93654C15.6216 2.69447 15.306 2.49412 14.9648 2.33554C14.9648 2.31884 14.9733 2.31049 14.9733 2.2938L14.9904 2.20198C14.9904 2.19363 14.9989 2.18529 14.9989 2.16859L15.0245 2.04338C15.0416 1.95991 15.0586 1.87644 15.0757 1.76792C15.1098 1.57594 14.9989 1.38397 14.8112 1.31719C14.5383 1.21702 14.2482 1.1419 13.9582 1.09182C13.6682 1.04174 13.3696 1.00835 13.0795 1C12.8748 1 12.6957 1.14191 12.6615 1.35058C12.6445 1.43406 12.6274 1.52588 12.6103 1.60935L12.5848 1.72621C12.5848 1.73456 12.5848 1.75125 12.5762 1.7596L12.5592 1.85141C12.5592 1.86811 12.5506 1.87646 12.5506 1.89315C12.1753 1.92654 11.7999 2.00167 11.4416 2.11853C11.399 2.0601 11.3563 1.99332 11.3137 1.93489C11.2454 1.84307 11.1772 1.7429 11.1175 1.65108C11.0066 1.48414 10.7848 1.42571 10.6056 1.50918C10.0597 1.75959 9.55639 2.09346 9.12133 2.50249C8.97631 2.63604 8.95072 2.86142 9.07015 3.02835C9.18105 3.17861 9.29195 3.3372 9.39431 3.48744C9.14692 3.77125 8.94218 4.08009 8.78011 4.41398C8.66068 4.38894 8.54125 4.37224 8.42183 4.3472L8.1915 4.32216C7.9953 4.28877 7.80762 4.39729 7.73937 4.58092C7.637 4.85638 7.56023 5.14018 7.50051 5.43232C7.44933 5.72447 7.41521 6.01661 7.40668 6.30879C7.39815 6.49243 7.51758 6.65103 7.69672 6.7011L7.69662 6.70113ZM8.30228 5.58262C8.32787 5.44906 8.36199 5.30716 8.39612 5.17359C8.54114 5.19864 8.68616 5.22368 8.83117 5.25707C8.90794 5.27376 8.96766 5.28211 9.0359 5.27376C9.18945 5.26541 9.32594 5.16524 9.38566 5.02334C9.57333 4.57261 9.83779 4.17194 10.1875 3.82134C10.2984 3.70448 10.3325 3.53753 10.2728 3.39564C10.2472 3.32886 10.2046 3.27043 10.1619 3.20366L10.0851 3.09514L9.93159 2.86977C10.1449 2.69447 10.3837 2.53588 10.6311 2.40232C10.7164 2.51918 10.8017 2.64439 10.887 2.7696C10.9382 2.84473 10.9894 2.90316 11.0576 2.94489C11.1771 3.02002 11.3221 3.03671 11.45 2.98663C11.9107 2.79465 12.3884 2.70283 12.8832 2.69448C13.0367 2.69448 13.1817 2.60266 13.25 2.46911C13.2756 2.41902 13.2926 2.36059 13.3012 2.29381L13.3524 2.01835L13.3779 1.89315C13.3779 1.8848 13.3779 1.8681 13.3865 1.85976V1.84306C13.523 1.85976 13.6509 1.87645 13.7874 1.90149C13.9239 1.92653 14.0519 1.95157 14.1798 1.99331V2.01C14.1798 2.01835 14.1713 2.0267 14.1713 2.04339L14.1457 2.1686L14.0945 2.44406C14.0774 2.50249 14.0774 2.56092 14.0774 2.61935C14.086 2.7696 14.1883 2.90316 14.3333 2.96159C14.794 3.13689 15.212 3.40401 15.5618 3.7379C15.6641 3.82971 15.8091 3.87145 15.9371 3.83806C16.0139 3.82137 16.0906 3.78798 16.1589 3.72955C16.2783 3.64607 16.4063 3.5626 16.5257 3.47913C16.7049 3.68781 16.8669 3.92154 17.0034 4.15526C16.9181 4.21369 16.8413 4.26378 16.756 4.32221L16.6707 4.38064C16.6025 4.42238 16.5428 4.46411 16.4916 4.52254C16.3807 4.6394 16.3466 4.80635 16.4148 4.9566C16.611 5.40733 16.7134 5.87478 16.7219 6.35894C16.7219 6.50919 16.8157 6.65109 16.9522 6.71787C17.0119 6.74291 17.0802 6.76795 17.1484 6.77629C17.2935 6.80134 17.4385 6.82638 17.5835 6.85142C17.5664 6.99333 17.5494 7.12688 17.5238 7.26045C17.4982 7.39401 17.4641 7.52756 17.4299 7.66111C17.3958 7.65277 17.3532 7.64442 17.319 7.64442C17.1911 7.61938 17.0631 7.59434 16.9266 7.56929C16.9181 7.56929 16.8755 7.56094 16.8669 7.56094C16.6793 7.5359 16.5087 7.64442 16.4404 7.81136C16.2527 8.27045 15.9798 8.67948 15.6214 9.03008C15.502 9.14694 15.4679 9.32223 15.5361 9.47249C15.5532 9.51423 15.5788 9.55596 15.6044 9.58935C15.6982 9.71456 15.7835 9.83977 15.8774 9.97331C15.6641 10.1486 15.4338 10.2988 15.1949 10.4324L15.1437 10.3573C15.067 10.2488 14.9987 10.1486 14.9219 10.0401C14.8963 9.99834 14.8622 9.9566 14.8281 9.93156C14.7087 9.82304 14.5381 9.78965 14.3845 9.84808C13.9239 10.0401 13.4376 10.1402 12.9343 10.1402C12.7722 10.1402 12.6272 10.2321 12.5675 10.374C12.5419 10.424 12.5248 10.4825 12.5163 10.5493C12.4907 10.6995 12.4651 10.8414 12.4395 10.9833C12.303 10.9666 12.1751 10.9499 12.0386 10.9249C11.9021 10.8998 11.7741 10.8748 11.6462 10.8331C11.6718 10.6828 11.6974 10.5409 11.7315 10.3907C11.7486 10.3322 11.7486 10.2738 11.7486 10.2154C11.74 10.0568 11.6377 9.9232 11.4927 9.86477C11.032 9.68113 10.614 9.42236 10.2557 9.08015C10.1363 8.97163 9.96567 8.93825 9.81212 8.99668C9.76946 9.01337 9.72681 9.03842 9.68416 9.07181C9.58179 9.14693 9.47089 9.22206 9.36 9.28883L9.28322 9.33892C9.10408 9.13023 8.95053 8.90486 8.81405 8.67114C8.942 8.57932 9.07849 8.49584 9.20643 8.41237C9.24909 8.38733 9.28321 8.35395 9.31733 8.3289C9.43676 8.21204 9.47088 8.03675 9.40264 7.88649C9.20644 7.43576 9.09554 6.9516 9.09554 6.45912C9.09554 6.27548 8.96758 6.11688 8.78844 6.07517C8.77991 6.07517 8.73725 6.06682 8.72872 6.05847C8.60077 6.03343 8.46428 6.00839 8.33634 5.98334C8.30221 5.975 8.25956 5.96665 8.22544 5.96665C8.25956 5.84979 8.27662 5.71623 8.30221 5.5827L8.30228 5.58262Z"/>
</mask>
<path d="M7.69662 6.70113C7.71368 6.70948 7.73927 6.70948 7.7734 6.71782C7.91842 6.74287 8.05491 6.76791 8.19994 6.79295C8.23407 6.8013 8.26819 6.80965 8.30231 6.80965C8.33643 7.18527 8.41321 7.55256 8.54117 7.90312C8.47292 7.95321 8.40468 7.99494 8.33643 8.04503L8.1317 8.17859C8.09758 8.20363 8.07199 8.22032 8.05492 8.23701C7.90137 8.35388 7.85019 8.55421 7.92697 8.72949C8.18288 9.25536 8.52409 9.73952 8.9421 10.1652C9.07859 10.3071 9.30038 10.3322 9.46247 10.2236L9.48806 10.207C9.59896 10.1235 9.71839 10.0484 9.82929 9.97323C9.86341 9.94819 9.90607 9.92315 9.94019 9.8981C10.2302 10.1402 10.5459 10.3405 10.8871 10.4991C10.87 10.5659 10.8615 10.641 10.8444 10.7078C10.8274 10.8163 10.8018 10.9248 10.7847 11.0333C10.7847 11.0417 10.7762 11.0584 10.7762 11.0667C10.7421 11.2587 10.8615 11.4423 11.0406 11.5091C11.3136 11.6093 11.6037 11.6844 11.8937 11.7345C12.1837 11.7846 12.4823 11.818 12.7723 11.8263H12.7809C12.9771 11.8263 13.1391 11.6928 13.1818 11.5091C13.1818 11.5008 13.1903 11.4841 13.1903 11.4757C13.2074 11.3672 13.233 11.2587 13.25 11.1502C13.2671 11.0834 13.2756 11.0166 13.2927 10.9415C13.668 10.9081 14.0434 10.833 14.4017 10.7161C14.4273 10.7495 14.4529 10.7913 14.4785 10.8247C14.5552 10.9332 14.6405 11.05 14.7088 11.1585C14.7173 11.1669 14.7344 11.1919 14.7429 11.2003C14.8623 11.3505 15.0671 11.4006 15.2462 11.3255C15.7922 11.0751 16.2869 10.7495 16.722 10.3405C16.867 10.207 16.8926 9.99829 16.7902 9.8397C16.7732 9.81466 16.7561 9.78962 16.7391 9.75623L16.6026 9.56424C16.5514 9.49746 16.5087 9.42234 16.4575 9.35556C16.7049 9.07175 16.9182 8.75456 17.0803 8.42067C17.1144 8.42902 17.1485 8.43736 17.1827 8.43736C17.3277 8.4624 17.4642 8.48745 17.6092 8.52083C17.6348 8.52918 17.6604 8.52918 17.686 8.52918C17.8737 8.54588 18.0443 8.43736 18.1125 8.26207C18.2149 7.98661 18.2917 7.70282 18.3514 7.41067C18.4111 7.11853 18.4367 6.82638 18.4452 6.5342C18.4538 6.34222 18.3173 6.17527 18.1296 6.13353C18.1211 6.13353 18.104 6.12519 18.0955 6.12519L17.8993 6.0918C17.7798 6.06676 17.6604 6.05006 17.541 6.02502C17.5069 5.65774 17.4301 5.29882 17.3107 4.94822C17.4642 4.8397 17.6263 4.73953 17.7884 4.63102C17.959 4.52251 18.0187 4.30548 17.9334 4.12183C17.6775 3.58761 17.3363 3.09513 16.9183 2.66943C16.7818 2.52752 16.5514 2.50248 16.3894 2.61935C16.2956 2.68612 16.1932 2.7529 16.0993 2.81133C16.0396 2.85307 15.9714 2.8948 15.9117 2.93654C15.6216 2.69447 15.306 2.49412 14.9648 2.33554C14.9648 2.31884 14.9733 2.31049 14.9733 2.2938L14.9904 2.20198C14.9904 2.19363 14.9989 2.18529 14.9989 2.16859L15.0245 2.04338C15.0416 1.95991 15.0586 1.87644 15.0757 1.76792C15.1098 1.57594 14.9989 1.38397 14.8112 1.31719C14.5383 1.21702 14.2482 1.1419 13.9582 1.09182C13.6682 1.04174 13.3696 1.00835 13.0795 1C12.8748 1 12.6957 1.14191 12.6615 1.35058C12.6445 1.43406 12.6274 1.52588 12.6103 1.60935L12.5848 1.72621C12.5848 1.73456 12.5848 1.75125 12.5762 1.7596L12.5592 1.85141C12.5592 1.86811 12.5506 1.87646 12.5506 1.89315C12.1753 1.92654 11.7999 2.00167 11.4416 2.11853C11.399 2.0601 11.3563 1.99332 11.3137 1.93489C11.2454 1.84307 11.1772 1.7429 11.1175 1.65108C11.0066 1.48414 10.7848 1.42571 10.6056 1.50918C10.0597 1.75959 9.55639 2.09346 9.12133 2.50249C8.97631 2.63604 8.95072 2.86142 9.07015 3.02835C9.18105 3.17861 9.29195 3.3372 9.39431 3.48744C9.14692 3.77125 8.94218 4.08009 8.78011 4.41398C8.66068 4.38894 8.54125 4.37224 8.42183 4.3472L8.1915 4.32216C7.9953 4.28877 7.80762 4.39729 7.73937 4.58092C7.637 4.85638 7.56023 5.14018 7.50051 5.43232C7.44933 5.72447 7.41521 6.01661 7.40668 6.30879C7.39815 6.49243 7.51758 6.65103 7.69672 6.7011L7.69662 6.70113ZM8.30228 5.58262C8.32787 5.44906 8.36199 5.30716 8.39612 5.17359C8.54114 5.19864 8.68616 5.22368 8.83117 5.25707C8.90794 5.27376 8.96766 5.28211 9.0359 5.27376C9.18945 5.26541 9.32594 5.16524 9.38566 5.02334C9.57333 4.57261 9.83779 4.17194 10.1875 3.82134C10.2984 3.70448 10.3325 3.53753 10.2728 3.39564C10.2472 3.32886 10.2046 3.27043 10.1619 3.20366L10.0851 3.09514L9.93159 2.86977C10.1449 2.69447 10.3837 2.53588 10.6311 2.40232C10.7164 2.51918 10.8017 2.64439 10.887 2.7696C10.9382 2.84473 10.9894 2.90316 11.0576 2.94489C11.1771 3.02002 11.3221 3.03671 11.45 2.98663C11.9107 2.79465 12.3884 2.70283 12.8832 2.69448C13.0367 2.69448 13.1817 2.60266 13.25 2.46911C13.2756 2.41902 13.2926 2.36059 13.3012 2.29381L13.3524 2.01835L13.3779 1.89315C13.3779 1.8848 13.3779 1.8681 13.3865 1.85976V1.84306C13.523 1.85976 13.6509 1.87645 13.7874 1.90149C13.9239 1.92653 14.0519 1.95157 14.1798 1.99331V2.01C14.1798 2.01835 14.1713 2.0267 14.1713 2.04339L14.1457 2.1686L14.0945 2.44406C14.0774 2.50249 14.0774 2.56092 14.0774 2.61935C14.086 2.7696 14.1883 2.90316 14.3333 2.96159C14.794 3.13689 15.212 3.40401 15.5618 3.7379C15.6641 3.82971 15.8091 3.87145 15.9371 3.83806C16.0139 3.82137 16.0906 3.78798 16.1589 3.72955C16.2783 3.64607 16.4063 3.5626 16.5257 3.47913C16.7049 3.68781 16.8669 3.92154 17.0034 4.15526C16.9181 4.21369 16.8413 4.26378 16.756 4.32221L16.6707 4.38064C16.6025 4.42238 16.5428 4.46411 16.4916 4.52254C16.3807 4.6394 16.3466 4.80635 16.4148 4.9566C16.611 5.40733 16.7134 5.87478 16.7219 6.35894C16.7219 6.50919 16.8157 6.65109 16.9522 6.71787C17.0119 6.74291 17.0802 6.76795 17.1484 6.77629C17.2935 6.80134 17.4385 6.82638 17.5835 6.85142C17.5664 6.99333 17.5494 7.12688 17.5238 7.26045C17.4982 7.39401 17.4641 7.52756 17.4299 7.66111C17.3958 7.65277 17.3532 7.64442 17.319 7.64442C17.1911 7.61938 17.0631 7.59434 16.9266 7.56929C16.9181 7.56929 16.8755 7.56094 16.8669 7.56094C16.6793 7.5359 16.5087 7.64442 16.4404 7.81136C16.2527 8.27045 15.9798 8.67948 15.6214 9.03008C15.502 9.14694 15.4679 9.32223 15.5361 9.47249C15.5532 9.51423 15.5788 9.55596 15.6044 9.58935C15.6982 9.71456 15.7835 9.83977 15.8774 9.97331C15.6641 10.1486 15.4338 10.2988 15.1949 10.4324L15.1437 10.3573C15.067 10.2488 14.9987 10.1486 14.9219 10.0401C14.8963 9.99834 14.8622 9.9566 14.8281 9.93156C14.7087 9.82304 14.5381 9.78965 14.3845 9.84808C13.9239 10.0401 13.4376 10.1402 12.9343 10.1402C12.7722 10.1402 12.6272 10.2321 12.5675 10.374C12.5419 10.424 12.5248 10.4825 12.5163 10.5493C12.4907 10.6995 12.4651 10.8414 12.4395 10.9833C12.303 10.9666 12.1751 10.9499 12.0386 10.9249C11.9021 10.8998 11.7741 10.8748 11.6462 10.8331C11.6718 10.6828 11.6974 10.5409 11.7315 10.3907C11.7486 10.3322 11.7486 10.2738 11.7486 10.2154C11.74 10.0568 11.6377 9.9232 11.4927 9.86477C11.032 9.68113 10.614 9.42236 10.2557 9.08015C10.1363 8.97163 9.96567 8.93825 9.81212 8.99668C9.76946 9.01337 9.72681 9.03842 9.68416 9.07181C9.58179 9.14693 9.47089 9.22206 9.36 9.28883L9.28322 9.33892C9.10408 9.13023 8.95053 8.90486 8.81405 8.67114C8.942 8.57932 9.07849 8.49584 9.20643 8.41237C9.24909 8.38733 9.28321 8.35395 9.31733 8.3289C9.43676 8.21204 9.47088 8.03675 9.40264 7.88649C9.20644 7.43576 9.09554 6.9516 9.09554 6.45912C9.09554 6.27548 8.96758 6.11688 8.78844 6.07517C8.77991 6.07517 8.73725 6.06682 8.72872 6.05847C8.60077 6.03343 8.46428 6.00839 8.33634 5.98334C8.30221 5.975 8.25956 5.96665 8.22544 5.96665C8.25956 5.84979 8.27662 5.71623 8.30221 5.5827L8.30228 5.58262Z" fill="#818181"/>
<path d="M7.69662 6.70113C7.71368 6.70948 7.73927 6.70948 7.7734 6.71782C7.91842 6.74287 8.05491 6.76791 8.19994 6.79295C8.23407 6.8013 8.26819 6.80965 8.30231 6.80965C8.33643 7.18527 8.41321 7.55256 8.54117 7.90312C8.47292 7.95321 8.40468 7.99494 8.33643 8.04503L8.1317 8.17859C8.09758 8.20363 8.07199 8.22032 8.05492 8.23701C7.90137 8.35388 7.85019 8.55421 7.92697 8.72949C8.18288 9.25536 8.52409 9.73952 8.9421 10.1652C9.07859 10.3071 9.30038 10.3322 9.46247 10.2236L9.48806 10.207C9.59896 10.1235 9.71839 10.0484 9.82929 9.97323C9.86341 9.94819 9.90607 9.92315 9.94019 9.8981C10.2302 10.1402 10.5459 10.3405 10.8871 10.4991C10.87 10.5659 10.8615 10.641 10.8444 10.7078C10.8274 10.8163 10.8018 10.9248 10.7847 11.0333C10.7847 11.0417 10.7762 11.0584 10.7762 11.0667C10.7421 11.2587 10.8615 11.4423 11.0406 11.5091C11.3136 11.6093 11.6037 11.6844 11.8937 11.7345C12.1837 11.7846 12.4823 11.818 12.7723 11.8263H12.7809C12.9771 11.8263 13.1391 11.6928 13.1818 11.5091C13.1818 11.5008 13.1903 11.4841 13.1903 11.4757C13.2074 11.3672 13.233 11.2587 13.25 11.1502C13.2671 11.0834 13.2756 11.0166 13.2927 10.9415C13.668 10.9081 14.0434 10.833 14.4017 10.7161C14.4273 10.7495 14.4529 10.7913 14.4785 10.8247C14.5552 10.9332 14.6405 11.05 14.7088 11.1585C14.7173 11.1669 14.7344 11.1919 14.7429 11.2003C14.8623 11.3505 15.0671 11.4006 15.2462 11.3255C15.7922 11.0751 16.2869 10.7495 16.722 10.3405C16.867 10.207 16.8926 9.99829 16.7902 9.8397C16.7732 9.81466 16.7561 9.78962 16.7391 9.75623L16.6026 9.56424C16.5514 9.49746 16.5087 9.42234 16.4575 9.35556C16.7049 9.07175 16.9182 8.75456 17.0803 8.42067C17.1144 8.42902 17.1485 8.43736 17.1827 8.43736C17.3277 8.4624 17.4642 8.48745 17.6092 8.52083C17.6348 8.52918 17.6604 8.52918 17.686 8.52918C17.8737 8.54588 18.0443 8.43736 18.1125 8.26207C18.2149 7.98661 18.2917 7.70282 18.3514 7.41067C18.4111 7.11853 18.4367 6.82638 18.4452 6.5342C18.4538 6.34222 18.3173 6.17527 18.1296 6.13353C18.1211 6.13353 18.104 6.12519 18.0955 6.12519L17.8993 6.0918C17.7798 6.06676 17.6604 6.05006 17.541 6.02502C17.5069 5.65774 17.4301 5.29882 17.3107 4.94822C17.4642 4.8397 17.6263 4.73953 17.7884 4.63102C17.959 4.52251 18.0187 4.30548 17.9334 4.12183C17.6775 3.58761 17.3363 3.09513 16.9183 2.66943C16.7818 2.52752 16.5514 2.50248 16.3894 2.61935C16.2956 2.68612 16.1932 2.7529 16.0993 2.81133C16.0396 2.85307 15.9714 2.8948 15.9117 2.93654C15.6216 2.69447 15.306 2.49412 14.9648 2.33554C14.9648 2.31884 14.9733 2.31049 14.9733 2.2938L14.9904 2.20198C14.9904 2.19363 14.9989 2.18529 14.9989 2.16859L15.0245 2.04338C15.0416 1.95991 15.0586 1.87644 15.0757 1.76792C15.1098 1.57594 14.9989 1.38397 14.8112 1.31719C14.5383 1.21702 14.2482 1.1419 13.9582 1.09182C13.6682 1.04174 13.3696 1.00835 13.0795 1C12.8748 1 12.6957 1.14191 12.6615 1.35058C12.6445 1.43406 12.6274 1.52588 12.6103 1.60935L12.5848 1.72621C12.5848 1.73456 12.5848 1.75125 12.5762 1.7596L12.5592 1.85141C12.5592 1.86811 12.5506 1.87646 12.5506 1.89315C12.1753 1.92654 11.7999 2.00167 11.4416 2.11853C11.399 2.0601 11.3563 1.99332 11.3137 1.93489C11.2454 1.84307 11.1772 1.7429 11.1175 1.65108C11.0066 1.48414 10.7848 1.42571 10.6056 1.50918C10.0597 1.75959 9.55639 2.09346 9.12133 2.50249C8.97631 2.63604 8.95072 2.86142 9.07015 3.02835C9.18105 3.17861 9.29195 3.3372 9.39431 3.48744C9.14692 3.77125 8.94218 4.08009 8.78011 4.41398C8.66068 4.38894 8.54125 4.37224 8.42183 4.3472L8.1915 4.32216C7.9953 4.28877 7.80762 4.39729 7.73937 4.58092C7.637 4.85638 7.56023 5.14018 7.50051 5.43232C7.44933 5.72447 7.41521 6.01661 7.40668 6.30879C7.39815 6.49243 7.51758 6.65103 7.69672 6.7011L7.69662 6.70113ZM8.30228 5.58262C8.32787 5.44906 8.36199 5.30716 8.39612 5.17359C8.54114 5.19864 8.68616 5.22368 8.83117 5.25707C8.90794 5.27376 8.96766 5.28211 9.0359 5.27376C9.18945 5.26541 9.32594 5.16524 9.38566 5.02334C9.57333 4.57261 9.83779 4.17194 10.1875 3.82134C10.2984 3.70448 10.3325 3.53753 10.2728 3.39564C10.2472 3.32886 10.2046 3.27043 10.1619 3.20366L10.0851 3.09514L9.93159 2.86977C10.1449 2.69447 10.3837 2.53588 10.6311 2.40232C10.7164 2.51918 10.8017 2.64439 10.887 2.7696C10.9382 2.84473 10.9894 2.90316 11.0576 2.94489C11.1771 3.02002 11.3221 3.03671 11.45 2.98663C11.9107 2.79465 12.3884 2.70283 12.8832 2.69448C13.0367 2.69448 13.1817 2.60266 13.25 2.46911C13.2756 2.41902 13.2926 2.36059 13.3012 2.29381L13.3524 2.01835L13.3779 1.89315C13.3779 1.8848 13.3779 1.8681 13.3865 1.85976V1.84306C13.523 1.85976 13.6509 1.87645 13.7874 1.90149C13.9239 1.92653 14.0519 1.95157 14.1798 1.99331V2.01C14.1798 2.01835 14.1713 2.0267 14.1713 2.04339L14.1457 2.1686L14.0945 2.44406C14.0774 2.50249 14.0774 2.56092 14.0774 2.61935C14.086 2.7696 14.1883 2.90316 14.3333 2.96159C14.794 3.13689 15.212 3.40401 15.5618 3.7379C15.6641 3.82971 15.8091 3.87145 15.9371 3.83806C16.0139 3.82137 16.0906 3.78798 16.1589 3.72955C16.2783 3.64607 16.4063 3.5626 16.5257 3.47913C16.7049 3.68781 16.8669 3.92154 17.0034 4.15526C16.9181 4.21369 16.8413 4.26378 16.756 4.32221L16.6707 4.38064C16.6025 4.42238 16.5428 4.46411 16.4916 4.52254C16.3807 4.6394 16.3466 4.80635 16.4148 4.9566C16.611 5.40733 16.7134 5.87478 16.7219 6.35894C16.7219 6.50919 16.8157 6.65109 16.9522 6.71787C17.0119 6.74291 17.0802 6.76795 17.1484 6.77629C17.2935 6.80134 17.4385 6.82638 17.5835 6.85142C17.5664 6.99333 17.5494 7.12688 17.5238 7.26045C17.4982 7.39401 17.4641 7.52756 17.4299 7.66111C17.3958 7.65277 17.3532 7.64442 17.319 7.64442C17.1911 7.61938 17.0631 7.59434 16.9266 7.56929C16.9181 7.56929 16.8755 7.56094 16.8669 7.56094C16.6793 7.5359 16.5087 7.64442 16.4404 7.81136C16.2527 8.27045 15.9798 8.67948 15.6214 9.03008C15.502 9.14694 15.4679 9.32223 15.5361 9.47249C15.5532 9.51423 15.5788 9.55596 15.6044 9.58935C15.6982 9.71456 15.7835 9.83977 15.8774 9.97331C15.6641 10.1486 15.4338 10.2988 15.1949 10.4324L15.1437 10.3573C15.067 10.2488 14.9987 10.1486 14.9219 10.0401C14.8963 9.99834 14.8622 9.9566 14.8281 9.93156C14.7087 9.82304 14.5381 9.78965 14.3845 9.84808C13.9239 10.0401 13.4376 10.1402 12.9343 10.1402C12.7722 10.1402 12.6272 10.2321 12.5675 10.374C12.5419 10.424 12.5248 10.4825 12.5163 10.5493C12.4907 10.6995 12.4651 10.8414 12.4395 10.9833C12.303 10.9666 12.1751 10.9499 12.0386 10.9249C11.9021 10.8998 11.7741 10.8748 11.6462 10.8331C11.6718 10.6828 11.6974 10.5409 11.7315 10.3907C11.7486 10.3322 11.7486 10.2738 11.7486 10.2154C11.74 10.0568 11.6377 9.9232 11.4927 9.86477C11.032 9.68113 10.614 9.42236 10.2557 9.08015C10.1363 8.97163 9.96567 8.93825 9.81212 8.99668C9.76946 9.01337 9.72681 9.03842 9.68416 9.07181C9.58179 9.14693 9.47089 9.22206 9.36 9.28883L9.28322 9.33892C9.10408 9.13023 8.95053 8.90486 8.81405 8.67114C8.942 8.57932 9.07849 8.49584 9.20643 8.41237C9.24909 8.38733 9.28321 8.35395 9.31733 8.3289C9.43676 8.21204 9.47088 8.03675 9.40264 7.88649C9.20644 7.43576 9.09554 6.9516 9.09554 6.45912C9.09554 6.27548 8.96758 6.11688 8.78844 6.07517C8.77991 6.07517 8.73725 6.06682 8.72872 6.05847C8.60077 6.03343 8.46428 6.00839 8.33634 5.98334C8.30221 5.975 8.25956 5.96665 8.22544 5.96665C8.25956 5.84979 8.27662 5.71623 8.30221 5.5827L8.30228 5.58262Z" stroke="#818181" stroke-width="0.4" mask="url(#path-2-outside-1_1651_8509)"/>
<path d="M10.7857 8.45297L10.7857 8.45296C10.5673 8.22959 10.3758 7.96557 10.2523 7.67478C10.0614 7.27652 9.96001 6.82911 9.96934 6.37812C9.96981 6.21199 9.9902 6.05228 10.0186 5.90872C10.0436 5.73211 10.0978 5.57317 10.1364 5.46017C10.138 5.4555 10.1395 5.45091 10.1411 5.4464L10.1446 5.43617L10.1447 5.43621C10.3005 5.00914 10.5585 4.62735 10.8846 4.31823L10.8869 4.31607L10.8869 4.31608C11.1201 4.09778 11.3872 3.9157 11.6881 3.78299C12.1016 3.59181 12.56 3.50354 13.0055 3.51344L13.0162 3.51368L13.0269 3.51438C13.0335 3.51481 13.0402 3.51524 13.047 3.51568C13.1646 3.52328 13.3242 3.53361 13.4798 3.56378C13.6382 3.59298 13.7904 3.63249 13.9356 3.68322L10.7857 8.45297ZM10.7857 8.45297L10.7879 8.45523M10.7857 8.45297L10.7879 8.45523M11.783 5.25702C11.911 5.13182 12.0645 5.03165 12.2266 4.95652M11.783 5.25702C11.6039 5.43233 11.4588 5.64102 11.3735 5.87474M11.783 5.25702L12.1327 5.6144M11.783 5.25702L12.1327 5.61439M12.2266 4.95652L11.2797 6.37556C11.2797 6.30878 11.2882 6.21698 11.3053 6.1335C11.3223 6.05003 11.3479 5.95821 11.3735 5.87474M12.2266 4.95652C12.4399 4.85636 12.6787 4.80627 12.9176 4.80627H12.9602C13.0455 4.80627 13.1394 4.81462 13.2247 4.83131C13.31 4.848 13.3952 4.87304 13.4805 4.89807L13.4806 4.89809L12.2266 4.95652ZM11.3735 5.87474L11.8432 6.04617C11.8446 6.04239 11.846 6.03861 11.8474 6.03483M11.3735 5.87474L11.8516 6.0213C11.8502 6.02582 11.8488 6.03033 11.8474 6.03483M11.8474 6.03483C11.9038 5.88634 12.0012 5.74307 12.1327 5.6144M11.8474 6.03483C11.8257 6.10682 11.8069 6.17625 11.7952 6.23362L11.3056 6.13357L11.7952 6.23363C11.7847 6.28475 11.7797 6.34302 11.7797 6.37556V6.38407L11.7794 6.39258C11.7736 6.56418 11.8088 6.73252 11.8819 6.88101L11.8877 6.89278L11.8875 6.89286C11.9434 7.01434 12.0044 7.103 12.0815 7.17844L12.1327 5.6144M12.1327 5.6144L12.1327 5.61439M12.1327 5.61439C12.2138 5.53502 12.3179 5.4653 12.4369 5.41016L12.4369 5.41017M12.1327 5.61439L12.4369 5.41017M10.7879 8.45523C11.1039 8.77446 11.4926 9.0253 11.9251 9.17646M10.7879 8.45523L15.7248 7.4235M15.7248 7.4235L15.7247 7.42346C15.5694 7.84873 15.3123 8.23094 14.9763 8.54144C14.7476 8.76387 14.4789 8.94541 14.1809 9.07679C13.7888 9.25766 13.3601 9.34636 12.9346 9.34636H12.8664C12.6989 9.34636 12.5303 9.32498 12.3809 9.29588C12.2224 9.26668 12.0703 9.22717 11.9251 9.17646M15.7248 7.4235L15.7283 7.41327M15.7248 7.4235L15.7283 7.41327M11.9251 9.17646L12.0901 8.70445M11.9251 9.17646L12.0901 8.70445M12.0901 8.70445C12.2095 8.74619 12.3375 8.77958 12.474 8.80462M12.0901 8.70445L12.474 8.80462M12.474 8.80462C12.6019 8.82966 12.7384 8.84636 12.8664 8.84636H12.9346C13.2929 8.84636 13.6512 8.77123 13.9754 8.62098L12.474 8.80462ZM15.7283 7.41327C15.7775 7.26876 15.8172 7.12315 15.8472 6.97653L15.8472 6.97653M15.7283 7.41327L15.8472 6.97653M15.8472 6.97653L15.8484 6.97051M15.8472 6.97653L15.8484 6.97051M15.8484 6.97051C15.8768 6.82232 15.8995 6.66487 15.9 6.49002C15.9093 6.05095 15.818 5.60002 15.6219 5.19396C15.4852 4.89722 15.2982 4.63489 15.0751 4.40669L15.0751 4.40669M15.8484 6.97051L15.0751 4.40669M15.0751 4.40669L15.0729 4.40445M15.0751 4.40669L15.0729 4.40445M15.0729 4.40445C14.7568 4.08522 14.3681 3.83437 13.9356 3.68322L15.0729 4.40445ZM12.4369 5.41017L12.4392 5.40909M12.4369 5.41017L12.4392 5.40909M12.4392 5.40909C12.5814 5.34226 12.7471 5.30627 12.9176 5.30627H12.9602C13.0158 5.30627 13.0774 5.31197 13.1287 5.32201C13.1845 5.33293 13.2441 5.34982 13.3266 5.37399C13.4899 5.43281 13.6329 5.52381 13.754 5.64791L13.7539 5.64801M12.4392 5.40909L13.7539 5.64801M13.7539 5.64801L13.7622 5.65613M13.7539 5.64801L13.7622 5.65613M13.7622 5.65613C13.8432 5.73536 13.9136 5.83627 13.9689 5.95068L13.9689 5.95069M13.7622 5.65613L13.9689 5.95069M13.9689 5.95069L13.9704 5.95357M13.9689 5.95069L13.9704 5.95357M13.9704 5.95357C14.044 6.10329 14.0785 6.27162 14.0728 6.43305L14.0725 6.44185M13.9704 5.95357L14.0725 6.44185M14.0725 6.44185V6.45066M14.0725 6.44185V6.45066M14.0725 6.45066C14.0725 6.5004 14.0674 6.55999 14.0562 6.62206C14.044 6.68028 14.0255 6.74719 14.0072 6.80176C13.9492 6.9581 13.8512 7.10306 13.7283 7.21235L13.7283 7.21232M14.0725 6.45066L13.7283 7.21232M13.7283 7.21232L13.7235 7.21671M13.7283 7.21232L13.7235 7.21671M13.7235 7.21671C13.6361 7.29651 13.5262 7.36911 13.4068 7.42441L13.4068 7.42441M13.7235 7.21671L13.4068 7.42441M13.4068 7.42441L13.404 7.42574M13.4068 7.42441L13.404 7.42574M13.404 7.42574C13.2477 7.4994 13.0708 7.53434 12.9003 7.52859L12.8919 7.52831M13.404 7.42574L12.8919 7.52831M12.8919 7.52831H12.8835M12.8919 7.52831H12.8835M12.8835 7.52831C12.8332 7.52831 12.7788 7.52362 12.711 7.51176M12.8835 7.52831L12.711 7.51176M12.711 7.51176C12.6564 7.50083 12.5977 7.48419 12.5173 7.46064C12.3614 7.40416 12.2131 7.30722 12.0815 7.17844L12.711 7.51176Z" fill="#818181" stroke="white"/>
</svg>
