<svg width="4" height="16" viewBox="0 0 4 16" fill="none" xmlns="http://www.w3.org/2000/svg">
<path d="M2 6.5C2.29667 6.5 2.58668 6.58797 2.83336 6.7528C3.08003 6.91762 3.27229 7.15188 3.38582 7.42597C3.49935 7.70006 3.52906 8.00166 3.47118 8.29263C3.4133 8.58361 3.27044 8.85088 3.06066 9.06066C2.85088 9.27044 2.58361 9.4133 2.29264 9.47118C2.00166 9.52906 1.70006 9.49935 1.42597 9.38582C1.15189 9.27229 0.917618 9.08003 0.752795 8.83335C0.587973 8.58668 0.5 8.29667 0.5 8C0.5 7.60217 0.658035 7.22064 0.93934 6.93934C1.22064 6.65804 1.60218 6.5 2 6.5ZM0.5 14.375C0.5 14.6717 0.587974 14.9617 0.752796 15.2084C0.917618 15.455 1.15189 15.6473 1.42598 15.7608C1.70006 15.8744 2.00166 15.9041 2.29264 15.8462C2.58361 15.7883 2.85088 15.6454 3.06066 15.4357C3.27044 15.2259 3.4133 14.9586 3.47118 14.6676C3.52906 14.3767 3.49935 14.0751 3.38582 13.801C3.27229 13.5269 3.08003 13.2926 2.83336 13.1278C2.58668 12.963 2.29667 12.875 2 12.875C1.60218 12.875 1.22064 13.033 0.93934 13.3143C0.658035 13.5956 0.5 13.9772 0.5 14.375ZM0.499999 1.625C0.499999 1.92167 0.587973 2.21168 0.752795 2.45835C0.917617 2.70503 1.15189 2.89729 1.42597 3.01082C1.70006 3.12435 2.00166 3.15405 2.29264 3.09618C2.58361 3.0383 2.85088 2.89544 3.06066 2.68566C3.27044 2.47588 3.4133 2.20861 3.47118 1.91763C3.52906 1.62666 3.49935 1.32506 3.38582 1.05097C3.27229 0.776884 3.08003 0.542617 2.83336 0.377794C2.58668 0.212972 2.29667 0.124998 2 0.124998C1.60217 0.124998 1.22064 0.283034 0.93934 0.564339C0.658035 0.845643 0.499999 1.22717 0.499999 1.625Z" fill="black"/>
</svg>
