<svg width="57" height="56" viewBox="0 0 57 56" fill="none" xmlns="http://www.w3.org/2000/svg">
<circle cx="28.667" cy="28" r="28" fill="#585FCD"/>
<path d="M14.4547 37.075C14.7032 37.6854 15.4483 38.0086 16.0872 37.7213L16.5486 37.5417L20.4876 43.6464C20.7005 43.9695 21.162 44.1133 21.5166 43.8979L23.6813 42.7486C24.0717 42.5332 24.2135 41.9944 23.9653 41.6355L20.3455 35.9976L20.523 35.9257C20.8423 35.7822 20.9844 35.423 20.878 35.1357L18.713 29.7851C18.6066 29.462 18.2162 29.3182 17.8969 29.462L13.461 31.2575C12.8224 31.509 12.5028 32.2272 12.7514 32.8734L14.4547 37.075Z" fill="white"/>
<path d="M42.0637 25.0446C42.1347 24.7573 42.2055 24.5061 42.2055 24.2187C42.2055 23.8595 42.1345 23.5006 41.9926 23.1413C41.7441 22.4951 41.2473 21.9563 40.6797 21.6689C38.7278 17.252 36.3503 13.194 34.3275 12.0808C34.15 11.9731 33.9017 11.9731 33.7243 12.0808C33.5468 12.1885 33.4049 12.3681 33.3693 12.5835C33.3339 12.9427 33.3339 13.3378 33.3339 13.7686C33.3339 13.9482 33.3693 14.1278 33.3693 14.3071C29.9624 19.8734 25.2073 24.5417 19.4939 28.6355C19.281 28.8151 19.1746 29.1024 19.281 29.3536L19.6714 30.2873C25.3494 26.5166 30.7788 21.2019 33.7242 16.5694C33.7596 16.7129 33.7596 16.8209 33.7953 16.9644C33.8306 17.0721 33.8306 17.1798 33.8663 17.3236C30.8496 21.8843 25.4914 27.0913 19.8844 30.7901L21.5523 34.8839C21.6588 35.1713 21.9781 35.3148 22.2977 35.2432C28.3658 33.3757 34.7536 32.7653 41.851 34.8121C41.9574 34.9556 42.0995 35.0994 42.2413 35.2429C42.5963 35.6021 42.951 35.9611 43.3414 36.2484C43.4478 36.3561 43.5899 36.3919 43.7317 36.3919C43.8736 36.3919 44.0157 36.3561 44.1221 36.2842C44.69 35.8534 44.69 34.9556 44.6543 34.3091C44.4771 32.3344 43.4833 28.7792 42.0638 25.0441L42.0637 25.0446ZM36.6342 22.2078C35.5341 19.0836 34.7534 16.0669 34.647 13.9483C36.0309 15.3489 37.6635 18.1499 39.1539 21.3459C38.8699 21.3459 38.6217 21.4178 38.3377 21.5255L36.6342 22.2078ZM38.9407 27.6663L40.7505 26.7327C40.9279 26.625 41.0698 26.5172 41.2473 26.3735C41.8151 27.8817 42.2763 29.3899 42.6666 30.8264C43.1988 32.8016 43.3409 33.9506 43.3763 34.561C41.8861 33.0528 40.3247 30.5031 38.9407 27.6662L38.9407 27.6663Z" fill="white"/>
<circle cx="48" cy="7" r="6.5" fill="#5FC26A" stroke="white"/>
</svg>
