<svg width="56" height="56" viewBox="0 0 56 56" fill="none" xmlns="http://www.w3.org/2000/svg">
<circle cx="28" cy="28" r="28" fill="#585FCD"/>
<path d="M23.72 37.7841C25.4971 39.2215 27.7144 40.0039 30 40.0001C31.508 40.0001 32.94 39.6661 34.226 39.0661L38.804 39.9801C38.9653 40.0123 39.1321 40.0041 39.2895 39.9563C39.4469 39.9086 39.59 39.8228 39.7063 39.7065C39.8227 39.5902 39.9085 39.447 39.9562 39.2896C40.0039 39.1322 40.0121 38.9655 39.98 38.8041L39.066 34.2281C39.666 32.9421 40 31.5081 40 30.0001C40.0033 27.7152 39.2209 25.4987 37.784 23.7221C38.0686 25.2028 38.0733 26.7237 37.798 28.2061C38.2173 30.0388 37.9802 31.9604 37.128 33.6361C37.0253 33.8371 36.9936 34.0669 37.038 34.2881L37.726 37.7261L34.286 37.0381C34.0654 36.9942 33.8364 37.0259 33.636 37.1281C31.96 37.9817 30.0372 38.2188 28.204 37.7981C26.7216 38.0738 25.2006 38.069 23.72 37.7841ZM16 26.0001C16.0008 23.8362 16.7035 21.7309 18.0027 20.0004C19.3018 18.2698 21.1272 17.0073 23.2049 16.4025C25.2826 15.7976 27.5004 15.8831 29.5254 16.6459C31.5504 17.4088 33.2733 18.808 34.4355 20.6333C35.5976 22.4587 36.1363 24.6118 35.9707 26.7694C35.805 28.927 34.944 30.9726 33.5168 32.5992C32.0896 34.2258 30.1733 35.3455 28.0556 35.7904C25.9379 36.2352 23.733 35.981 21.772 35.0661L17.196 35.9801C17.0347 36.0123 16.8679 36.0041 16.7105 35.9563C16.5531 35.9086 16.4099 35.8228 16.2936 35.7065C16.1773 35.5902 16.0915 35.447 16.0438 35.2896C15.9961 35.1322 15.9879 34.9655 16.02 34.8041L16.934 30.2261C16.3169 28.9029 15.998 27.4602 16 26.0001ZM26 29.7601C25.6685 29.7601 25.3505 29.8918 25.1161 30.1263C24.8817 30.3607 24.75 30.6786 24.75 31.0101C24.75 31.3417 24.8817 31.6596 25.1161 31.894C25.3505 32.1284 25.6685 32.2601 26 32.2601C26.3315 32.2601 26.6495 32.1284 26.8839 31.894C27.1183 31.6596 27.25 31.3417 27.25 31.0101C27.25 30.6786 27.1183 30.3607 26.8839 30.1263C26.6495 29.8918 26.3315 29.7601 26 29.7601ZM26 20.0061C23.904 20.0061 22.272 21.6421 22.294 23.9161C22.2966 24.1814 22.4045 24.4347 22.594 24.6203C22.7834 24.806 23.0388 24.9088 23.304 24.9061C23.5692 24.9035 23.8225 24.7956 24.0082 24.6062C24.1938 24.4168 24.2966 24.1614 24.294 23.8961C24.282 22.7381 25.014 22.0061 26 22.0061C26.944 22.0061 27.706 22.7901 27.706 23.9061C27.706 24.3101 27.566 24.5361 26.986 24.9941L26.432 25.4241C25.42 26.2321 25 26.8581 25 28.0001C24.9995 28.25 25.0927 28.491 25.261 28.6757C25.4294 28.8604 25.6608 28.9753 25.9096 28.9979C26.1585 29.0205 26.4068 28.949 26.6057 28.7977C26.8045 28.6463 26.9395 28.426 26.984 28.1801L27.006 27.8681C27.04 27.5721 27.206 27.3601 27.698 26.9721L28.252 26.5421C29.278 25.7221 29.706 25.0781 29.706 23.9061C29.706 21.6981 28.062 20.0061 26 20.0061Z" fill="white"/>
</svg>
