<svg width="20" height="24" viewBox="0 0 20 24" fill="none" xmlns="http://www.w3.org/2000/svg">
<path d="M17.5584 5.23C16.2167 5.07 14.875 4.95 13.525 4.86V4.85L13.3417 3.55C13.2167 2.63 13.0334 1.25 11.0834 1.25H8.90005C6.95838 1.25 6.77505 2.57 6.64172 3.54L6.46672 4.82C5.69172 4.88 4.91672 4.94 4.14172 5.03L2.44172 5.23C2.09172 5.27 1.84172 5.64 1.87505 6.05C1.90838 6.46 2.20838 6.76 2.55838 6.72L4.25838 6.52C8.62505 6 13.0251 6.2 17.4417 6.73C17.4667 6.73 17.4834 6.73 17.5084 6.73C17.8251 6.73 18.1 6.44 18.1334 6.05C18.1584 5.64 17.9084 5.27 17.5584 5.23Z" fill="#FF0202"/>
<path opacity="0.3991" d="M16.025 8.14C15.825 7.89 15.55 7.75 15.2666 7.75H4.73329C4.44995 7.75 4.16662 7.89 3.97495 8.14C3.78329 8.39 3.67495 8.73 3.69162 9.08L4.20829 19.34C4.29995 20.86 4.41662 22.76 7.32495 22.76H12.675C15.5833 22.76 15.7 20.87 15.7916 19.34L16.3083 9.09C16.325 8.73 16.2166 8.39 16.025 8.14Z" fill="#FF0202"/>
<path fill-rule="evenodd" clip-rule="evenodd" d="M7.98328 17C7.98328 16.5858 8.2631 16.25 8.60828 16.25H11.3833C11.7285 16.25 12.0083 16.5858 12.0083 17C12.0083 17.4142 11.7285 17.75 11.3833 17.75H8.60828C8.2631 17.75 7.98328 17.4142 7.98328 17Z" fill="#FF0202"/>
<path fill-rule="evenodd" clip-rule="evenodd" d="M7.29163 13C7.29163 12.5858 7.57145 12.25 7.91663 12.25H12.0833C12.4285 12.25 12.7083 12.5858 12.7083 13C12.7083 13.4142 12.4285 13.75 12.0833 13.75H7.91663C7.57145 13.75 7.29163 13.4142 7.29163 13Z" fill="#FF0202"/>
</svg>
